<?xml version="1.0" encoding="utf-8"?>
<!-- Generator: Adobe Illustrator 17.0.0, SVG Export Plug-In . SVG Version: 6.00 Build 0)  -->
<!DOCTYPE svg PUBLIC "-//W3C//DTD SVG 1.1//EN" "http://www.w3.org/Graphics/SVG/1.1/DTD/svg11.dtd">
<svg version="1.1" xmlns="http://www.w3.org/2000/svg" xmlns:xlink="http://www.w3.org/1999/xlink" x="0px" y="0px" width="80px"
	 height="80px" viewBox="209.5 15.5 80 80" enable-background="new 209.5 15.5 80 80" xml:space="preserve">
<g id="Layer_1">
	<path d="M249.5,15.5c2.602,0,4.719,2.117,4.719,4.719c0,2.602-2.117,4.719-4.719,4.719c-2.602,0-4.719-2.117-4.719-4.719
		C244.781,17.617,246.898,15.5,249.5,15.5z M249.5,95.5c-5.283,0-9.584-4.28-9.622-9.555c2.612,0.3,5.839,0.289,9.622,0.289
		s7.01,0.011,9.622-0.289C259.084,91.22,254.783,95.5,249.5,95.5z M284.466,75.131l-0.032,0.165l0.009-0.004
		c-0.137,0.825-1.035,4.239-6.491,4.239h-4.083l-0.195,0.024c-0.314,0.038-7.753,0.955-12.045,2.567
		c-2.335,0.877-6.662,0.877-11.242,0.877h-1.772c-4.581,0-8.908,0-11.243-0.877c-4.292-1.613-11.731-2.529-12.045-2.567
		l-0.195-0.024h-4.083c-2.614,0-4.496-0.755-5.595-2.244c-0.725-0.982-0.898-1.986-0.899-1.996l-0.015-0.131l-0.007-0.033
		c-0.018-0.154-0.1-1.019,0.171-1.942c0.322-1.096,1.011-1.81,2.17-2.248c6.875-2.596,10.682-10.996,12.344-27.239
		c0.587-5.733,3.116-9.904,7.519-12.397c3.212-1.819,6.378-2.135,6.846-2.172h11.838c0.424,0.034,3.61,0.343,6.841,2.172
		c4.402,2.493,6.932,6.664,7.518,12.397c1.662,16.243,5.469,24.644,12.344,27.239c1.158,0.437,1.847,1.151,2.17,2.248
		C284.569,74.117,284.483,74.99,284.466,75.131z"/>
</g>
<g id="Layer_2">
</g>
<g id="Layer_3">
</g>
<g id="Layer_4">
</g>
<g id="Layer_5">
</g>
</svg>
