<?xml version="1.0" encoding="utf-8"?>
<!-- Generator: Adobe Illustrator 17.0.0, SVG Export Plug-In . SVG Version: 6.00 Build 0)  -->
<!DOCTYPE svg PUBLIC "-//W3C//DTD SVG 1.1//EN" "http://www.w3.org/Graphics/SVG/1.1/DTD/svg11.dtd">
<svg version="1.1" xmlns="http://www.w3.org/2000/svg" xmlns:xlink="http://www.w3.org/1999/xlink" x="0px" y="0px" width="80px"
	 height="80px" viewBox="-90.5 215.5 80 80" enable-background="new -90.5 215.5 80 80" xml:space="preserve">
<g id="Layer_1">
</g>
<g id="Layer_2">
</g>
<g id="Layer_3">
</g>
<g id="Layer_4">
</g>
<g id="Layer_5">
	<g>
		<path d="M-40.494,215.5h-38.763c-3.35,0-6.066,2.716-6.066,6.066v67.867c0,3.35,2.716,6.066,6.066,6.066h57.514
			c3.35,0,6.066-2.716,6.066-6.066v-49.116L-40.494,215.5z M-18.71,289.434c0,1.673-1.361,3.033-3.033,3.033h-57.514
			c-1.673,0-3.033-1.361-3.033-3.033v-67.868c0-1.673,1.361-3.033,3.033-3.033h37.855v16.347c0,3.909,3.169,7.077,7.077,7.077
			h15.615V289.434z"/>
		<rect x="-75.804" y="234.88" width="23.929" height="4.55"/>
		<rect x="-75.804" y="244.964" width="23.929" height="4.55"/>
		<rect x="-75.804" y="255.048" width="47.857" height="4.55"/>
		<rect x="-75.804" y="265.132" width="47.857" height="4.55"/>
		<rect x="-75.804" y="275.216" width="47.857" height="4.55"/>
	</g>
</g>
</svg>
