<?xml version="1.0" encoding="utf-8"?>
<!-- Generator: Adobe Illustrator 17.0.0, SVG Export Plug-In . SVG Version: 6.00 Build 0)  -->
<!DOCTYPE svg PUBLIC "-//W3C//DTD SVG 1.1//EN" "http://www.w3.org/Graphics/SVG/1.1/DTD/svg11.dtd">
<svg version="1.1" xmlns="http://www.w3.org/2000/svg" xmlns:xlink="http://www.w3.org/1999/xlink" x="0px" y="0px" width="80px"
	 height="80px" viewBox="209.5 115.5 80 80" enable-background="new 209.5 115.5 80 80" xml:space="preserve">
<g id="Layer_1">
</g>
<g id="Layer_2">
</g>
<g id="Layer_3">
</g>
<g id="Layer_4">
</g>
<g id="Layer_5">
	<g>
		<path d="M276.114,121.512h-14.523c1.868,1.689,4.453,2.571,7.654,2.571h1.889l4.288,8.934h-51.846l4.288-8.934h1.889
			c3.202,0,5.787-0.881,7.654-2.571h-14.523c-3.908,0-7.077,3.168-7.077,7.077v59.834c0,3.908,3.168,7.077,7.077,7.077h53.227
			c3.908,0,7.077-3.168,7.077-7.077v-59.834C283.19,124.681,280.022,121.512,276.114,121.512z"/>
		<path d="M228.348,130.015H249.5h21.152l-1.406-2.93c-6.445,0-10.664-3.047-12.656-7.5c-1.992-4.453-7.09-4.077-7.09-4.077
			s-5.098-0.375-7.09,4.077c-1.992,4.453-6.211,7.5-12.656,7.5L228.348,130.015z M249.5,118.832c1.48,0,2.681,1.2,2.681,2.681
			s-1.2,2.681-2.681,2.681s-2.681-1.2-2.681-2.681S248.02,118.832,249.5,118.832z"/>
	</g>
</g>
</svg>
