<?xml version="1.0" encoding="utf-8"?>
<!-- Generator: Adobe Illustrator 17.0.0, SVG Export Plug-In . SVG Version: 6.00 Build 0)  -->
<!DOCTYPE svg PUBLIC "-//W3C//DTD SVG 1.1//EN" "http://www.w3.org/Graphics/SVG/1.1/DTD/svg11.dtd">
<svg version="1.1" xmlns="http://www.w3.org/2000/svg" xmlns:xlink="http://www.w3.org/1999/xlink" x="0px" y="0px" width="80px"
	 height="80px" viewBox="9.5 115.5 80 80" enable-background="new 9.5 115.5 80 80" xml:space="preserve">
<g id="Layer_1">
	<g>
		<path d="M78.156,115.5H20.844c-6.265,0-11.344,5.079-11.344,11.344v57.311c0,6.265,5.079,11.344,11.344,11.344h57.311
			c6.265,0,11.344-5.079,11.344-11.344v-57.311C89.5,120.579,84.421,115.5,78.156,115.5z M56.63,127.735
			c5.736,0,10.386,4.65,10.386,10.386c0,5.736-4.65,10.386-10.386,10.386c-5.736,0-10.386-4.65-10.386-10.386
			C46.244,132.385,50.894,127.735,56.63,127.735z M34.351,127.735c5.736,0,10.386,4.65,10.386,10.386
			c0,5.736-4.65,10.386-10.386,10.386c-5.736,0-10.386-4.65-10.386-10.386C23.965,132.385,28.615,127.735,34.351,127.735z
			 M69.123,174.23c0,2.16-1.751,3.912-3.912,3.912H27.877c-2.16,0-3.912-1.751-3.912-3.912v-21.202c0-2.16,1.751-3.912,3.912-3.912
			h37.334c2.16,0,3.912,1.751,3.912,3.912V174.23z M82.391,161.598c0,2.526,0,4.062,0,4.062c0,1.031,0,2.223,0,3.549
			c0,4.575-3.976,3.207-3.976,3.207s-3.763-1.411-5.729-2.195c-1.967-0.784-1.796-2.367-1.796-2.367v-3.005v-2.437v-3.005
			c0,0-0.171-1.583,1.796-2.367c1.967-0.784,5.729-2.195,5.729-2.195s3.976-1.368,3.976,3.207
			C82.391,159.375,82.391,160.567,82.391,161.598z"/>
		<rect x="30.255" y="155.952" width="25.409" height="15.146"/>
		<circle cx="61.679" cy="157.158" r="2.367"/>
	</g>
</g>
<g id="Layer_2">
</g>
<g id="Layer_3">
</g>
<g id="Layer_4">
</g>
<g id="Layer_5">
</g>
</svg>
