<?xml version="1.0" encoding="utf-8"?>
<!-- Generator: Adobe Illustrator 17.0.0, SVG Export Plug-In . SVG Version: 6.00 Build 0)  -->
<!DOCTYPE svg PUBLIC "-//W3C//DTD SVG 1.1//EN" "http://www.w3.org/Graphics/SVG/1.1/DTD/svg11.dtd">
<svg version="1.1" xmlns="http://www.w3.org/2000/svg" xmlns:xlink="http://www.w3.org/1999/xlink" x="0px" y="0px" width="80px"
	 height="80px" viewBox="-90.5 315.5 80 80" enable-background="new -90.5 315.5 80 80" xml:space="preserve">
<g id="Layer_1">
</g>
<g id="Layer_2">
</g>
<g id="Layer_3">
</g>
<g id="Layer_4">
</g>
<g id="Layer_5">
	<g>
		<path d="M-10.5,347.901c0-14.58-17.909-26.4-40-26.4c-22.091,0-40,11.82-40,26.4c0,14.58,17.909,26.4,40,26.4
			c3.029,0,5.979-0.222,8.816-0.643c0,0,8.828,3.063,2.289,15.84c0,0,11.811-3.462,10.507-19.381l0-0.002
			C-17.829,365.418-10.5,357.226-10.5,347.901z M-30.099,369.442l-0.641,0.278l0.057,0.709c0.834,10.393-3.379,14.588-6.434,16.478
			c1.506-3.851,1.585-6.496,0.505-9.196c-1.673-4.184-5.031-4.753-5.159-4.798l-0.224-0.08l-0.234,0.036
			c-2.732,0.415-5.55,0.624-8.378,0.624c-20.783,0-37.692-11.242-37.692-25.06c0-13.818,16.908-25.059,37.692-25.059
			c20.783,0,37.691,11.241,37.691,25.059C-12.916,356.924-19.34,364.777-30.099,369.442z"/>
		<g>
			<path d="M-53.188,341.866c-1.308,0-1.873,1.206-1.873,2.363c0,1.333,0.767,2.338,1.848,2.338c1.056,0,1.848-0.993,1.848-2.363
				C-51.365,343.174-51.881,341.866-53.188,341.866z"/>
			<path d="M-37.262,353.515c-1.597,0-2.289,1.474-2.289,2.887c0,1.629,0.937,2.857,2.258,2.857c1.29,0,2.258-1.213,2.258-2.887
				C-35.035,355.112-35.665,353.515-37.262,353.515z"/>
			<path d="M-76.229,350.735c-0.583,0-1.029,0.047-1.259,0.108v4.023c0.292,0.077,0.66,0.108,1.106,0.108
				c1.612,0,2.595-0.784,2.595-2.212C-73.787,351.396-74.755,350.735-76.229,350.735z"/>
			<path d="M-60.275,341.904c-1.056,0-1.81,0.892-1.81,2.3c0,1.194,0.604,2.187,1.798,2.187c0.679,0,1.295-0.428,1.533-1.132
				c0.063-0.188,0.088-0.402,0.088-0.59v-1.094c0-0.188-0.013-0.352-0.063-0.503C-58.931,342.432-59.471,341.904-60.275,341.904z"/>
			<path d="M-71.146,346.567c1.056,0,1.848-0.993,1.848-2.363c0-1.031-0.515-2.338-1.823-2.338c-1.308,0-1.873,1.206-1.873,2.363
				C-72.994,345.562-72.227,346.567-71.146,346.567z"/>
			<path d="M-70.331,357.984c0,0.876,0.583,1.291,1.275,1.291c0.967,0,1.582-0.614,1.797-1.244c0.046-0.138,0.077-0.293,0.077-0.43
				v-1.29C-68.657,356.28-70.331,356.541-70.331,357.984z"/>
			<path d="M-33.697,346.567c1.056,0,1.848-0.993,1.848-2.363c0-1.031-0.515-2.338-1.823-2.338c-1.308,0-1.873,1.206-1.873,2.363
				C-35.545,345.562-34.778,346.567-33.697,346.567z"/>
			<path d="M-50.607,324.374c-20.233,0-36.693,10.793-36.693,24.06c0,13.267,16.461,24.061,36.693,24.061
				c2.779,0,5.547-0.206,8.225-0.612l0.484-0.075l0.414,0.149c1.212,0.291,4.203,1.398,5.798,5.384
				c0.864,2.159,1.04,4.237,0.505,6.7c2.804-3.023,3.981-7.558,3.502-13.531l-0.115-1.421l1.296-0.562
				c10.383-4.503,16.582-12.015,16.582-20.093C-13.915,335.167-30.375,324.374-50.607,324.374z M-29.362,341.175h1.106v3.369
				c0,1.157,0.352,1.936,1.358,1.936c0.742,0,1.257-0.516,1.458-1.005c0.063-0.164,0.101-0.365,0.101-0.567v-3.733h1.106v4.424
				c0,0.629,0.013,1.182,0.051,1.66h-0.981l-0.063-0.993h-0.025c-0.289,0.49-0.93,1.131-2.011,1.131
				c-0.955,0-2.099-0.529-2.099-2.665V341.175z M-33.647,341.036c1.747,0,2.929,1.27,2.929,3.13c0,2.25-1.559,3.231-3.029,3.231
				c-1.647,0-2.916-1.207-2.916-3.13C-36.664,342.231-35.331,341.036-33.647,341.036z M-49.532,341.175h0.943v-1.458l1.081-0.29
				v1.747h1.584v0.843h-1.584v3.28c0,0.755,0.214,1.182,0.829,1.182c0.289,0,0.503-0.038,0.641-0.076l0.05,0.83
				c-0.214,0.088-0.553,0.151-0.981,0.151c-0.515,0-0.93-0.164-1.194-0.465c-0.314-0.327-0.427-0.867-0.427-1.584v-3.318h-0.943
				V341.175z M-71.096,341.036c1.747,0,2.929,1.27,2.929,3.13c0,2.25-1.559,3.231-3.029,3.231c-1.647,0-2.916-1.207-2.916-3.13
				C-74.112,342.231-72.78,341.036-71.096,341.036z M-79.365,338.786h4.563v0.918h-3.47v2.815h3.206v0.905h-3.206v3.834h-1.094
				V338.786z M-73.249,354.913c-0.707,0.753-1.859,1.137-3.164,1.137c-0.399,0-0.767-0.016-1.075-0.092v4.146h-1.336v-10.229
				c0.645-0.107,1.49-0.199,2.565-0.199c1.32,0,2.288,0.307,2.903,0.86c0.568,0.491,0.906,1.244,0.906,2.165
				C-72.451,353.638-72.728,354.375-73.249,354.913z M-66.983,360.104l-0.107-0.937h-0.046c-0.415,0.584-1.214,1.106-2.273,1.106
				c-1.506,0-2.273-1.06-2.273-2.135c0-1.797,1.597-2.78,4.469-2.765v-0.153c0-0.614-0.169-1.72-1.689-1.72
				c-0.691,0-1.413,0.215-1.935,0.552l-0.307-0.89c0.614-0.399,1.505-0.66,2.442-0.66c2.273,0,2.826,1.551,2.826,3.041v2.78
				c0,0.645,0.031,1.275,0.123,1.782H-66.983z M-65.629,343.5c-0.025,0.15-0.05,0.327-0.05,0.515v3.243h-1.094v-4.186
				c0-0.716-0.013-1.332-0.05-1.898h0.968l0.038,1.195h0.051c0.276-0.817,0.942-1.333,1.684-1.333c0.126,0,0.214,0.013,0.314,0.038
				v1.043c-0.113-0.025-0.226-0.038-0.377-0.038C-64.925,342.079-65.478,342.67-65.629,343.5z M-62.129,360.258
				c-0.814,0-1.567-0.2-2.089-0.507l0.337-1.03c0.4,0.261,1.106,0.538,1.782,0.538c0.983,0,1.444-0.491,1.444-1.106
				c0-0.646-0.384-0.999-1.383-1.367c-1.336-0.476-1.966-1.213-1.966-2.104c0-1.197,0.968-2.18,2.565-2.18
				c0.752,0,1.413,0.215,1.828,0.46l-0.338,0.983c-0.292-0.184-0.829-0.43-1.52-0.43c-0.799,0-1.244,0.461-1.244,1.014
				c0,0.614,0.446,0.89,1.413,1.259c1.29,0.491,1.951,1.137,1.951,2.243C-59.349,359.336-60.363,360.258-62.129,360.258z
				 M-60.653,349.886c-0.729,0-1.533-0.176-2.024-0.502l0.277-0.843c0.402,0.252,1.031,0.478,1.785,0.478
				c1.131,0,1.961-0.591,1.961-2.125v-0.679h-0.025c-0.339,0.566-0.993,1.018-1.936,1.018c-1.509,0-2.59-1.282-2.59-2.966
				c0-2.061,1.345-3.231,2.74-3.231c1.056,0,1.634,0.553,1.898,1.056h0.025l0.05-0.918h0.968c-0.025,0.44-0.05,0.93-0.05,1.671
				v3.533c0,1.395-0.277,2.25-0.867,2.777C-59.031,349.71-59.886,349.886-60.653,349.886z M-56.046,360.258
				c-0.814,0-1.567-0.2-2.089-0.507l0.337-1.03c0.4,0.261,1.106,0.538,1.782,0.538c0.983,0,1.444-0.491,1.444-1.106
				c0-0.646-0.384-0.999-1.383-1.367c-1.336-0.476-1.966-1.213-1.966-2.104c0-1.197,0.968-2.18,2.565-2.18
				c0.752,0,1.413,0.215,1.828,0.46l-0.338,0.983c-0.292-0.184-0.829-0.43-1.52-0.43c-0.799,0-1.244,0.461-1.244,1.014
				c0,0.614,0.446,0.89,1.413,1.259c1.29,0.491,1.951,1.137,1.951,2.243C-53.267,359.336-54.28,360.258-56.046,360.258z
				 M-56.18,344.267c0-2.036,1.333-3.231,3.017-3.231c1.747,0,2.929,1.27,2.929,3.13c0,2.25-1.559,3.231-3.029,3.231
				C-54.91,347.397-56.18,346.19-56.18,344.267z M-43.974,360.104h-1.229l-1.137-3.548c-0.261-0.83-0.476-1.567-0.66-2.442h-0.031
				c-0.184,0.89-0.415,1.658-0.676,2.457l-1.198,3.532h-1.229l-2.242-7.434h1.382l0.983,3.779c0.215,0.829,0.414,1.597,0.553,2.365
				h0.046c0.169-0.753,0.415-1.551,0.661-2.35l1.214-3.793h1.136l1.152,3.716c0.276,0.891,0.491,1.674,0.661,2.427h0.046
				c0.123-0.753,0.323-1.536,0.569-2.412l1.06-3.732h1.336L-43.974,360.104z M-42.206,350.037l-0.276-0.93
				c0.276-0.088,0.641-0.264,0.968-0.54c0.302-0.239,0.679-0.667,0.93-1.233c0.05-0.113,0.088-0.201,0.088-0.263
				c0-0.063-0.025-0.151-0.076-0.29l-2.25-5.606h1.207l1.333,3.595c0.138,0.402,0.289,0.88,0.39,1.244h0.025
				c0.113-0.365,0.238-0.83,0.39-1.27l1.207-3.57h1.169l-1.659,4.337c-0.792,2.087-1.332,3.156-2.086,3.809
				C-41.388,349.798-41.929,349.986-42.206,350.037z M-37.354,360.273c-2.012,0-3.563-1.474-3.563-3.824
				c0-2.489,1.628-3.947,3.686-3.947c2.135,0,3.578,1.551,3.578,3.825C-33.653,359.076-35.557,360.273-37.354,360.273z
				 M-28.277,353.822c-0.138-0.03-0.276-0.046-0.461-0.046c-0.952,0-1.628,0.722-1.812,1.736c-0.031,0.184-0.061,0.399-0.061,0.629
				v3.963h-1.336v-5.115c0-0.875-0.016-1.628-0.061-2.319h1.182l0.046,1.459h0.061c0.337-0.998,1.152-1.628,2.058-1.628
				c0.154,0,0.261,0.016,0.384,0.046V353.822z M-21.811,360.104l-0.061-1.29h-0.031c-0.415,0.83-1.321,1.459-2.534,1.459
				c-1.797,0-3.18-1.52-3.18-3.778c-0.015-2.473,1.521-3.993,3.333-3.993c1.137,0,1.904,0.537,2.243,1.136h0.03V349.2h1.352v8.984
				c0,0.66,0.016,1.413,0.061,1.92H-21.811z M-19.773,342.079c-0.779,0-1.332,0.591-1.483,1.421c-0.025,0.15-0.05,0.327-0.05,0.515
				v3.243h-1.094v-4.186c0-0.716-0.013-1.332-0.05-1.898h0.968l0.038,1.195h0.051c0.276-0.817,0.942-1.333,1.684-1.333
				c0.126,0,0.214,0.013,0.314,0.038v1.043C-19.509,342.092-19.622,342.079-19.773,342.079z"/>
			<path d="M-24.022,353.561c-1.397,0-2.227,1.229-2.227,2.873c0,1.505,0.737,2.749,2.197,2.749c0.906,0,1.735-0.599,1.981-1.613
				c0.046-0.184,0.061-0.369,0.061-0.583v-1.29c0-0.17-0.015-0.4-0.061-0.569C-22.271,354.268-23.009,353.561-24.022,353.561z"/>
		</g>
	</g>
</g>
</svg>
