<?xml version="1.0" encoding="utf-8"?>
<!-- Generator: Adobe Illustrator 17.0.0, SVG Export Plug-In . SVG Version: 6.00 Build 0)  -->
<!DOCTYPE svg PUBLIC "-//W3C//DTD SVG 1.1//EN" "http://www.w3.org/Graphics/SVG/1.1/DTD/svg11.dtd">
<svg version="1.1" xmlns="http://www.w3.org/2000/svg" xmlns:xlink="http://www.w3.org/1999/xlink" x="0px" y="0px" width="80px"
	 height="80px" viewBox="309.5 315.5 80 80" enable-background="new 309.5 315.5 80 80" xml:space="preserve">
<g id="Layer_1">
</g>
<g id="Layer_2">
</g>
<g id="Layer_3">
</g>
<g id="Layer_4">
</g>
<g id="Layer_5">
	<g>
		<path d="M355.01,378.179h-23.229l-8.669,10.388l-0.056,0.08v-10.468H312.5v-32.622h11.02v-3h-11.544
			c-1.367,0-2.476,1.109-2.476,2.476v33.671c0,1.367,1.109,2.476,2.476,2.476h8.08v9.463c0,0,0.102,2.035,2.259,1.759
			c1.953-0.25,3.183-2.01,3.183-2.01l7.688-9.211h22.349c1.367,0,2.476-1.109,2.476-2.476v-9.929h-3V378.179z"/>
		<path d="M386.5,318.573h-56.98c-1.657,0-3,1.343-3,3v41.201c0,1.657,1.343,3,3,3h36.529l8.524,9.909c0,0,1.172,1.811,2.877,1.811
			c1.705,0,1.705-2.131,1.705-2.131v-9.589h7.345c1.657,0,3-1.343,3-3v-41.201C389.5,319.916,388.157,318.573,386.5,318.573z
			 M386.5,362.775h-10.346v10.148l-8.729-10.148H329.52v-41.201h56.98V362.775z"/>
		<rect x="334.747" y="332.474" width="35.167" height="4.667"/>
		<rect x="334.747" y="340.223" width="45.333" height="2.333"/>
		<rect x="334.747" y="345.515" width="45.333" height="2.333"/>
		<rect x="334.747" y="350.807" width="36" height="2.333"/>
	</g>
</g>
</svg>
