<?xml version="1.0" encoding="utf-8"?>
<!-- Generator: Adobe Illustrator 17.0.0, SVG Export Plug-In . SVG Version: 6.00 Build 0)  -->
<!DOCTYPE svg PUBLIC "-//W3C//DTD SVG 1.1//EN" "http://www.w3.org/Graphics/SVG/1.1/DTD/svg11.dtd">
<svg version="1.1" xmlns="http://www.w3.org/2000/svg" xmlns:xlink="http://www.w3.org/1999/xlink" x="0px" y="0px" width="80px"
	 height="80px" viewBox="9.5 15.5 80 80" enable-background="new 9.5 15.5 80 80" xml:space="preserve">
<g id="Layer_1">
	<g>
		<path d="M46.003,36.049c-7.123,0-11.232,6.986-11.232,15.615c-0.069,8.766,4.178,15.478,11.163,15.478
			c7.054,0,11.163-6.643,11.163-15.684C57.098,43.034,53.126,36.049,46.003,36.049z"/>
		<path d="M77.15,76.795c5.063-5.861,8.083-13.253,8.083-21.287c0-19.035-16.953-34.467-37.867-34.467S9.5,36.472,9.5,55.508
			s16.953,34.467,37.867,34.467c7.861,0,15.161-2.181,21.213-5.913c9.239,3.977,20.92,0.446,20.92,0.446
			C82.735,81.965,79.096,79.05,77.15,76.795z M65.317,82.62c-6.575-1.918-12.054-3.904-18.218-6.506
			c-1.027-0.411-2.123-0.616-3.219-0.685c-10.41-0.685-20.135-8.355-20.135-23.423c0-13.835,8.766-24.245,22.532-24.245
			c14.108,0,21.847,10.684,21.847,23.286c0,10.479-4.863,17.875-10.958,20.615v0.274c3.561,1.027,7.534,1.849,11.163,2.603
			L65.317,82.62z"/>
	</g>
</g>
<g id="Layer_2">
</g>
<g id="Layer_3">
</g>
<g id="Layer_4">
</g>
<g id="Layer_5">
</g>
</svg>
