<?xml version="1.0" encoding="utf-8"?>
<!-- Generator: Adobe Illustrator 17.0.0, SVG Export Plug-In . SVG Version: 6.00 Build 0)  -->
<!DOCTYPE svg PUBLIC "-//W3C//DTD SVG 1.1//EN" "http://www.w3.org/Graphics/SVG/1.1/DTD/svg11.dtd">
<svg version="1.1" xmlns="http://www.w3.org/2000/svg" xmlns:xlink="http://www.w3.org/1999/xlink" x="0px" y="0px" width="80px"
	 height="80px" viewBox="9.5 315.5 80 80" enable-background="new 9.5 315.5 80 80" xml:space="preserve">
<g id="Layer_1">
</g>
<g id="Layer_2">
</g>
<g id="Layer_3">
</g>
<g id="Layer_4">
</g>
<g id="Layer_5">
	<g>
		<path d="M89.5,357.689c0-14.575-14.161-26.39-31.631-26.39c-17.469,0-31.631,11.815-31.631,26.39
			c0,14.575,14.161,26.39,31.631,26.39c2.204,0,4.355-0.189,6.432-0.547c0,0,0,0,0.001,0.001c7.282,5.833,16.498,3.737,16.498,3.737
			c-4.205-2.465-4.675-8.034-4.675-8.034l-0.001-0.001C84.214,374.454,89.5,366.589,89.5,357.689z M57.967,336.345
			c-13.663,0-25.145,6.934-28.42,16.324c1.7-10.561,13.772-18.749,28.42-18.749c14.648,0,26.72,8.188,28.42,18.749
			C83.112,343.279,71.63,336.345,57.967,336.345z"/>
		<path d="M46.885,329.901c-3.469-1.649-7.586-2.613-12.01-2.613c-10.388,0-19.117,5.272-21.607,12.411
			c1.293-8.029,10.47-14.255,21.607-14.255c5.408,0,10.344,1.477,14.15,3.906c0.992-0.223,2.003-0.405,3.027-0.553
			c-4.514-3.38-10.419-5.433-16.887-5.433c-14.174,0-25.665,9.835-25.665,21.967c0,7.033,3.866,13.289,9.872,17.309
			c1.897,3.607-2.622,6.978-2.622,6.978c3.227,0.606,6.434-0.027,9.077-0.969c-1.616-3.388-2.515-7.086-2.515-10.96
			C23.312,344.782,33.201,333.804,46.885,329.901z"/>
	</g>
</g>
</svg>
