<?xml version="1.0" encoding="utf-8"?>
<!-- Generator: Adobe Illustrator 17.0.0, SVG Export Plug-In . SVG Version: 6.00 Build 0)  -->
<!DOCTYPE svg PUBLIC "-//W3C//DTD SVG 1.1//EN" "http://www.w3.org/Graphics/SVG/1.1/DTD/svg11.dtd">
<svg version="1.1" xmlns="http://www.w3.org/2000/svg" xmlns:xlink="http://www.w3.org/1999/xlink" x="0px" y="0px" width="80px"
	 height="80px" viewBox="109.5 15.5 80 80" enable-background="new 109.5 15.5 80 80" xml:space="preserve">
<g id="Layer_1">
	<g>
		<path d="M172.249,64.263c-3.419-3.42-6.111-4.657-6.111-4.657l-3.638-2.474c-4.438-2.837-4.729-3.856-6.257-6.984
			c-1.527-3.129-4.002-5.894-4.002-5.894c-2.765-2.764-4.074,0-4.074,0l-3.565,3.564L130.123,33.34l-2.11-2.11c0,0,0,0-1.383-4.147
			c-1.383-4.147-3.565-5.02-3.565-5.02l-9.313-6.257l-2.05,2.049l-2.05,2.05l6.257,9.314c0,0,0.873,2.182,5.02,3.566
			c4.147,1.382,4.147,1.382,4.147,1.382l2.11,2.11l14.479,14.479l-3.565,3.564c0,0-2.765,1.309,0,4.074c0,0,2.764,2.474,5.893,4.002
			c3.129,1.528,4.147,1.82,6.985,6.257l2.473,3.638c0,0,1.237,2.691,4.657,6.111c3.42,3.42,17.098,17.098,17.098,17.098l7.07-7.07
			l7.07-7.07C189.347,81.361,175.669,67.682,172.249,64.263z"/>
		<path d="M154.336,42.161c0.223,0.244,2.882,3.225,4.57,6.687l0.271,0.557c0.711,1.476,1.037,2.149,1.787,2.899
			c0.362,0.362,0.879,0.772,1.502,1.223l3.252-3.251c6.213,2.04,13.304,0.664,18.245-4.276c4.896-4.896,6.285-11.902,4.325-18.075
			l-7.708,7.707c-3.195,3.194-8.374,3.194-11.568,0c-3.195-3.195-3.195-8.374,0-11.568l7.708-7.707
			c-6.173-1.961-13.18-0.572-18.076,4.324c-4.896,4.896-6.285,11.904-4.325,18.076l-1.966,1.965
			C152.988,41.047,153.646,41.469,154.336,42.161z"/>
		<path d="M143.264,65.336l-0.571-0.277c-3.455-1.688-6.443-4.342-6.567-4.453c-0.005-0.005-0.008-0.008-0.014-0.013
			c-0.743-0.744-1.191-1.435-1.531-2.098L112.316,80.76c-3.164,3.164-3.164,8.295,0,11.459c3.164,3.165,8.295,3.164,11.459,0
			l23.597-23.597c-0.455-0.629-0.863-1.143-1.223-1.502C145.403,66.373,144.732,66.047,143.264,65.336z M120.883,88.563
			c-1.326,1.325-3.476,1.326-4.802,0c-1.326-1.326-1.326-3.476,0-4.803c1.326-1.325,3.476-1.325,4.802,0
			C122.209,85.087,122.209,87.238,120.883,88.563z"/>
	</g>
</g>
<g id="Layer_2">
</g>
<g id="Layer_3">
</g>
<g id="Layer_4">
</g>
<g id="Layer_5">
</g>
</svg>
