<?xml version="1.0" encoding="utf-8"?>
<!-- Generator: Adobe Illustrator 17.0.0, SVG Export Plug-In . SVG Version: 6.00 Build 0)  -->
<!DOCTYPE svg PUBLIC "-//W3C//DTD SVG 1.1//EN" "http://www.w3.org/Graphics/SVG/1.1/DTD/svg11.dtd">
<svg version="1.1" xmlns="http://www.w3.org/2000/svg" xmlns:xlink="http://www.w3.org/1999/xlink" x="0px" y="0px" width="80px"
	 height="80px" viewBox="209.5 215.5 80 80" enable-background="new 209.5 215.5 80 80" xml:space="preserve">
<g id="Layer_1">
</g>
<g id="Layer_2">
</g>
<g id="Layer_3">
</g>
<g id="Layer_4">
</g>
<g id="Layer_5">
	<path d="M289.5,262.768c0.013-1.332-0.218-2.573-0.789-3.725c-1.4-2.826-3.789-4.22-6.821-4.757
		c-1.381-0.244-2.728-0.691-4.082-1.075c-0.539-0.153-0.849-0.534-0.877-1.128c-0.033-0.716-0.142-1.432-0.125-2.145
		c0.008-0.35,0.201-0.707,0.356-1.039c0.332-0.714,0.785-1.385,1.019-2.126c0.244-0.772,0.29-1.606,0.425-2.426
		c0.549-0.041,0.834-0.394,0.972-0.883c0.261-0.926,0.534-1.849,0.747-2.786c0.154-0.676,0.124-1.34-0.58-1.718
		c0.565-1.68,0.701-3.375,0.548-5.078c-0.231-2.568-1.564-4.454-3.84-5.63c-1.81-0.935-3.756-1.094-5.751-0.776
		c-3.171,0.504-5.583,2.712-6.116,5.76c-0.338,1.935-0.123,3.872,0.462,5.751c-0.556,0.341-0.77,0.862-0.592,1.653
		c0.184,0.818,0.457,1.616,0.649,2.432c0.153,0.652,0.381,1.207,1.116,1.311c0.055,0.437,0.103,0.824,0.154,1.209
		c0.171,1.296,0.438,2.548,1.435,3.512c0.127,0.123,0.205,0.364,0.199,0.547c-0.026,0.798-0.104,1.594-0.137,2.393
		c-0.025,0.619-0.341,1.002-0.906,1.171c-0.147,0.044-0.294,0.091-0.441,0.137c-0.103-0.87-0.324-1.702-0.714-2.489
		c-1.4-2.826-3.789-4.22-6.821-4.757c-1.381-0.244-2.728-0.691-4.082-1.075c-0.539-0.153-0.849-0.534-0.877-1.128
		c-0.033-0.716-0.142-1.432-0.125-2.145c0.008-0.35,0.201-0.707,0.356-1.039c0.332-0.714,0.785-1.385,1.019-2.126
		c0.244-0.772,0.29-1.606,0.425-2.426c0.549-0.041,0.834-0.394,0.972-0.883c0.261-0.925,0.534-1.849,0.747-2.786
		c0.154-0.676,0.124-1.34-0.58-1.718c0.565-1.68,0.701-3.375,0.548-5.078c-0.231-2.568-1.564-4.454-3.84-5.63
		c-1.81-0.935-3.756-1.093-5.751-0.776c-3.171,0.504-5.583,2.712-6.116,5.76c-0.338,1.935-0.123,3.872,0.462,5.751
		c-0.556,0.341-0.77,0.862-0.592,1.653c0.184,0.818,0.457,1.616,0.649,2.432c0.153,0.652,0.381,1.207,1.116,1.311
		c0.055,0.437,0.103,0.824,0.154,1.209c0.171,1.295,0.438,2.548,1.435,3.512c0.127,0.123,0.205,0.364,0.2,0.547
		c-0.026,0.798-0.104,1.594-0.137,2.393c-0.025,0.619-0.341,1.002-0.906,1.171c-1.133,0.339-2.257,0.745-3.416,0.956
		c-1.94,0.354-3.799,0.833-5.344,2.147c-1.659,1.411-2.558,3.156-2.822,5.216c-0.159-0.046-0.317-0.094-0.476-0.139
		c-0.539-0.153-0.849-0.534-0.877-1.128c-0.033-0.716-0.142-1.432-0.125-2.145c0.008-0.35,0.201-0.707,0.356-1.039
		c0.332-0.714,0.785-1.385,1.019-2.126c0.244-0.772,0.29-1.606,0.425-2.426c0.549-0.041,0.834-0.394,0.972-0.883
		c0.261-0.926,0.534-1.849,0.747-2.786c0.154-0.676,0.124-1.34-0.58-1.718c0.565-1.68,0.701-3.375,0.548-5.078
		c-0.231-2.568-1.564-4.454-3.84-5.63c-1.81-0.935-3.756-1.094-5.751-0.776c-3.171,0.504-5.583,2.712-6.116,5.76
		c-0.338,1.935-0.123,3.872,0.462,5.751c-0.556,0.341-0.77,0.862-0.592,1.653c0.184,0.818,0.457,1.616,0.649,2.432
		c0.153,0.652,0.381,1.207,1.116,1.311c0.055,0.437,0.103,0.824,0.154,1.209c0.171,1.296,0.437,2.548,1.435,3.512
		c0.127,0.123,0.205,0.364,0.2,0.547c-0.026,0.798-0.104,1.594-0.137,2.393c-0.025,0.619-0.341,1.002-0.906,1.171
		c-1.133,0.339-2.257,0.745-3.415,0.956c-1.94,0.354-3.799,0.833-5.344,2.147c-1.982,1.686-2.893,3.843-2.913,6.452
		c0,12.845,9.359,23.928,22.889,29.087c0.004-0.041,0.004-0.081,0.009-0.121c0.02-2.609,0.931-4.765,2.913-6.452
		c1.545-1.314,3.404-1.794,5.344-2.147c1.158-0.211,2.282-0.617,3.416-0.956c0.565-0.169,0.881-0.552,0.906-1.171
		c0.032-0.798,0.111-1.594,0.137-2.392c0.006-0.183-0.072-0.424-0.2-0.547c-0.998-0.964-1.264-2.216-1.435-3.512
		c-0.051-0.386-0.098-0.772-0.154-1.209c-0.735-0.103-0.963-0.658-1.116-1.311c-0.192-0.816-0.465-1.614-0.649-2.432
		c-0.178-0.791,0.036-1.311,0.592-1.653c-0.585-1.879-0.801-3.816-0.462-5.751c0.533-3.048,2.945-5.256,6.116-5.76
		c1.994-0.317,3.941-0.158,5.751,0.776c2.276,1.176,3.61,3.062,3.84,5.63c0.153,1.702,0.017,3.398-0.548,5.078
		c0.704,0.378,0.735,1.042,0.58,1.718c-0.214,0.937-0.487,1.86-0.747,2.786c-0.138,0.49-0.422,0.842-0.972,0.883
		c-0.135,0.82-0.181,1.654-0.425,2.426c-0.235,0.742-0.687,1.413-1.019,2.126c-0.155,0.332-0.347,0.689-0.356,1.039
		c-0.017,0.714,0.091,1.429,0.125,2.145c0.027,0.594,0.337,0.974,0.877,1.128c1.354,0.384,2.701,0.83,4.082,1.075
		c3.032,0.536,5.421,1.931,6.821,4.757c0.571,1.153,0.802,2.393,0.789,3.726c0.018,0.036,0.03,0.071,0.048,0.107
		C280.159,286.676,289.5,275.601,289.5,262.768L289.5,262.768z"/>
</g>
</svg>
