<?xml version="1.0" encoding="utf-8"?>
<!-- Generator: Adobe Illustrator 17.0.0, SVG Export Plug-In . SVG Version: 6.00 Build 0)  -->
<!DOCTYPE svg PUBLIC "-//W3C//DTD SVG 1.1//EN" "http://www.w3.org/Graphics/SVG/1.1/DTD/svg11.dtd">
<svg version="1.1" xmlns="http://www.w3.org/2000/svg" xmlns:xlink="http://www.w3.org/1999/xlink" x="0px" y="0px" width="80px"
	 height="80px" viewBox="309.5 215.5 80 80" enable-background="new 309.5 215.5 80 80" xml:space="preserve">
<g id="Layer_1">
</g>
<g id="Layer_2">
</g>
<g id="Layer_3">
</g>
<g id="Layer_4">
</g>
<g id="Layer_5">
	<g>
		<path d="M368.628,283.95c-5.141-1.425-8.548-1.425-8.548-5.451c0,0,2.044-1.239,2.354-5.017c0,0,1.046-0.178,1.046-1.975
			s-0.619-1.563-0.619-1.563s0.565-8.541-6.497-8.541s-6.497,8.541-6.497,8.541s-0.619-0.233-0.619,1.563s1.046,1.975,1.046,1.975
			c0.31,3.778,2.354,5.017,2.354,5.017c0,4.026-3.407,4.026-8.548,5.451c-5.141,1.425-4.46,8.176-4.46,8.176
			c4.026,2.725,16.724,2.725,16.724,2.725s12.698,0,16.724-2.725C373.088,292.126,373.769,285.375,368.628,283.95z"/>
		<path d="M343.728,282.612c0.894-0.248,1.736-0.453,2.519-0.644c0.897-0.219,1.639-0.409,2.254-0.595
			c-0.569-1.64-1.702-3.267-3.937-3.886c-5.141-1.425-8.548-1.425-8.548-5.451c0,0,2.044-1.239,2.354-5.017
			c0,0,1.046-0.178,1.046-1.975c0-1.796-0.619-1.563-0.619-1.563s0.565-8.541-6.497-8.541s-6.497,8.541-6.497,8.541
			s-0.619-0.233-0.619,1.563c0,1.796,1.046,1.975,1.046,1.975c0.31,3.778,2.354,5.017,2.354,5.017c0,4.026-3.407,4.026-8.548,5.451
			c-5.141,1.425-4.46,8.176-4.46,8.176c4.026,2.725,16.724,2.725,16.724,2.725s2.884-0.001,6.339-0.296
			C339.28,285.771,340.748,283.439,343.728,282.612z"/>
		<path d="M334.308,228.227c0.31,3.778,2.354,5.017,2.354,5.017c0,2.216-1.036,3.21-2.821,3.895c0.214,1.008,0.289,1.924,0.305,2.55
			c0.346,0.431,0.613,1.146,0.613,2.33c0,1.456-0.534,2.338-1.134,2.832c-0.297,2.056-1.057,3.399-1.732,4.231
			c2.318,0.275,4.595,0.404,6.204,0.463c0.065-0.888,0.29-1.479,0.585-1.845c0.039-1.531,0.38-4.765,2.439-6.964
			c1.366-1.459,3.2-2.199,5.452-2.199c2.252,0,4.086,0.74,5.452,2.199c0.298,0.319,0.552,0.663,0.782,1.017l0.313-0.083
			c1.174-0.312,1.963-0.596,2.496-0.945c-0.666-0.9-1.61-1.654-2.971-2.031c-5.141-1.425-8.548-1.425-8.548-5.451
			c0,0,2.044-1.239,2.354-5.017c0,0,1.046-0.178,1.046-1.975c0-1.796-0.619-1.563-0.619-1.563s0.565-8.541-6.497-8.541
			s-6.497,8.541-6.497,8.541s-0.619-0.233-0.619,1.563C333.262,228.048,334.308,228.227,334.308,228.227z"/>
		<path d="M355.628,233.571c0.31,3.778,2.354,5.017,2.354,5.017c0,2.841-1.702,3.677-4.507,4.424
			c0.776,1.775,0.961,3.635,0.987,4.689c0.347,0.431,0.614,1.146,0.614,2.33c0,1.456-0.534,2.338-1.134,2.832
			c-0.086,0.595-0.214,1.125-0.365,1.607c4.185,0.471,8.122,0.471,8.122,0.471s1.086,0,2.719-0.068
			c0.11-0.383,0.264-0.671,0.438-0.887c0.038-1.531,0.38-4.765,2.438-6.964c1.366-1.459,3.2-2.199,5.452-2.199
			c1.562,0,2.917,0.364,4.06,1.069c-0.658-0.821-1.571-1.5-2.842-1.853c-5.141-1.425-8.548-1.425-8.548-5.451
			c0,0,2.044-1.239,2.354-5.017c0,0,1.046-0.178,1.046-1.975s-0.619-1.563-0.619-1.563s0.565-8.541-6.497-8.541
			s-6.497,8.541-6.497,8.541s-0.619-0.233-0.619,1.563S355.628,233.571,355.628,233.571z"/>
		<path d="M385.01,268.758c-5.141-1.425-8.548-1.425-8.548-5.451c0,0,2.044-1.239,2.354-5.017c0,0,1.046-0.178,1.046-1.975
			c0-1.796-0.619-1.563-0.619-1.563s0.565-8.541-6.497-8.541s-6.497,8.541-6.497,8.541s-0.619-0.233-0.619,1.563
			c0,1.796,1.046,1.975,1.046,1.975c0.31,3.779,2.354,5.017,2.354,5.017c0,2.964-1.85,3.746-4.875,4.52
			c0.063,0.52,0.091,0.986,0.101,1.35c0.346,0.431,0.613,1.146,0.613,2.33c0,1.456-0.534,2.338-1.134,2.832
			c-0.325,2.247-1.203,3.651-1.919,4.456c5.032,0.863,10.932,0.864,10.932,0.864s12.698,0,16.724-2.725
			C389.47,276.934,390.151,270.183,385.01,268.758z"/>
		<path d="M323.796,265.045c0-1.184,0.266-1.899,0.614-2.33c0.039-1.531,0.38-4.765,2.439-6.964c1.366-1.459,3.2-2.199,5.452-2.199
			s4.086,0.74,5.452,2.199c1.044,1.115,1.644,2.495,1.989,3.786c1.091-0.454,1.564-0.957,1.69-1.894
			c-0.513-0.497-1.189-1.355-1.687-2.67c-0.37-0.203-0.767-0.384-1.225-0.511c-5.141-1.425-8.548-1.425-8.548-5.451
			c0,0,2.044-1.239,2.354-5.017c0,0,1.046-0.178,1.046-1.975c0-1.796-0.619-1.563-0.619-1.563s0.565-8.541-6.497-8.541
			s-6.497,8.541-6.497,8.541s-0.619-0.233-0.619,1.563c0,1.796,1.046,1.975,1.046,1.975c0.31,3.778,2.354,5.017,2.354,5.017
			c0,4.026-3.407,4.026-8.548,5.451c-5.141,1.425-4.46,8.176-4.46,8.176c2.921,1.977,10.401,2.52,14.291,2.669
			C323.816,265.216,323.796,265.142,323.796,265.045z"/>
		<path d="M352.642,252.005c0,0,1.046-0.178,1.046-1.975c0-1.796-0.619-1.563-0.619-1.563s0.565-8.541-6.497-8.541
			c-7.061,0-6.497,8.541-6.497,8.541s-0.619-0.233-0.619,1.563c0,1.796,1.046,1.975,1.046,1.975c0.31,3.778,2.354,5.017,2.354,5.017
			c0,2.219-1.04,3.214-2.83,3.899c0.107,0.7,0.154,1.33,0.166,1.793c0.347,0.431,0.614,1.146,0.614,2.33
			c0,1.456-0.534,2.338-1.134,2.832c-0.374,2.585-1.481,4.057-2.23,4.782c0.006,0.044,0.015,0.084,0.022,0.126
			c4.53,0.59,9.109,0.591,9.109,0.591s0.637,0,1.666-0.031c-0.227-0.475-0.378-1.074-0.378-1.838c0-1.184,0.266-1.9,0.614-2.33
			c0.039-1.531,0.38-4.765,2.438-6.964c0.556-0.594,1.195-1.062,1.903-1.417c-1.602-0.683-2.526-1.685-2.526-3.775
			C350.288,257.023,352.332,255.784,352.642,252.005z"/>
	</g>
</g>
</svg>
