<?xml version="1.0" encoding="utf-8"?>
<!-- Generator: Adobe Illustrator 17.0.0, SVG Export Plug-In . SVG Version: 6.00 Build 0)  -->
<!DOCTYPE svg PUBLIC "-//W3C//DTD SVG 1.1//EN" "http://www.w3.org/Graphics/SVG/1.1/DTD/svg11.dtd">
<svg version="1.1" xmlns="http://www.w3.org/2000/svg" xmlns:xlink="http://www.w3.org/1999/xlink" x="0px" y="0px" width="80px"
	 height="80px" viewBox="109.5 215.5 80 80" enable-background="new 109.5 215.5 80 80" xml:space="preserve">
<g id="Layer_1">
</g>
<g id="Layer_2">
</g>
<g id="Layer_3">
</g>
<g id="Layer_4">
</g>
<g id="Layer_5">
	<g>
		<path d="M169.517,215.5h-40.033c-11.036,0-19.983,8.947-19.983,19.983v40.033c0,11.037,8.947,19.983,19.983,19.983h40.033
			c11.037,0,19.983-8.947,19.983-19.983v-40.033C189.5,224.447,180.553,215.5,169.517,215.5z M186.5,275.516
			c0,9.364-7.619,16.983-16.984,16.983h-40.033c-9.365,0-16.983-7.619-16.983-16.983v-40.033c0-9.364,7.619-16.983,16.983-16.983
			h40.033c9.365,0,16.984,7.619,16.984,16.983V275.516z"/>
		<path d="M169.516,221.5h-40.033c-7.71,0-13.983,6.272-13.983,13.983v40.033c0,7.711,6.273,13.983,13.983,13.983h40.033
			c7.711,0,13.984-6.272,13.984-13.983v-40.033C183.5,227.772,177.227,221.5,169.516,221.5z M148,276.301
			c-1.855-0.644-7.503-2.407-13.75-2.407c-6.809,0-12.922,2.64-12.922,2.64v-38.858c0,0,6.114-2.64,12.922-2.64
			c6.247,0,11.895,1.763,13.75,2.407V276.301z M177.673,276.534c0,0-6.114-2.64-12.922-2.64c-6.247,0-11.895,1.763-13.75,2.407
			v-38.857c1.855-0.644,7.503-2.407,13.751-2.407c6.809,0,12.922,2.64,12.922,2.64L177.673,276.534z"/>
	</g>
</g>
</svg>
