<?xml version="1.0" encoding="utf-8"?>
<!-- Generator: Adobe Illustrator 17.0.0, SVG Export Plug-In . SVG Version: 6.00 Build 0)  -->
<!DOCTYPE svg PUBLIC "-//W3C//DTD SVG 1.1//EN" "http://www.w3.org/Graphics/SVG/1.1/DTD/svg11.dtd">
<svg version="1.1" xmlns="http://www.w3.org/2000/svg" xmlns:xlink="http://www.w3.org/1999/xlink" x="0px" y="0px" width="80px"
	 height="80px" viewBox="409.5 15.5 80 80" enable-background="new 409.5 15.5 80 80" xml:space="preserve">
<g id="Layer_1">
	<g>
		<path d="M473.727,15.5h-48.454c-3.51,0-6.355,2.845-6.355,6.355v58.196c0,3.51,2.845,6.355,6.355,6.355h5.602V95.5h18.362v-9.094
			v-6.003v-7.135c-0.41,0.238-0.822,0.477-1.287,0.612c-0.928,2.056-3.003,3.491-5.405,3.491c-0.884,0-1.743-0.205-2.524-0.581
			c-0.776,0.376-1.636,0.581-2.524,0.581c-2.412,0-4.492-1.445-5.415-3.516c-0.436-0.133-0.819-0.367-1.206-0.591v7.138h-5.601
			c-0.195,0-0.356-0.156-0.356-0.352V21.853c0-0.195,0.161-0.352,0.356-0.352h48.452c0.195,0,0.356,0.156,0.356,0.352v58.198
			c0,0.195-0.161,0.352-0.356,0.352h-15.461v0.002c-1.657,0-3,1.343-3,3s1.343,3,3,3h15.462c3.51,0,6.355-2.845,6.355-6.355V21.855
			C480.082,18.345,477.237,15.5,473.727,15.5z"/>
		<path d="M447.056,60.684c0.33-0.474,0.567-1.019,0.567-1.64c0-1.618-1.312-2.93-2.93-2.93c-0.696,0-1.309,0.277-1.812,0.683
			c-0.249-1.366-1.389-2.421-2.827-2.421c-1.451,0-2.602,1.075-2.835,2.46c-0.51-0.432-1.147-0.721-1.868-0.721
			c-1.618,0-2.93,1.312-2.93,2.93c0,0.628,0.241,1.178,0.577,1.654c-1.576,0.048-2.844,1.325-2.844,2.912
			c0,1.11,0.641,2.042,1.551,2.539c-0.511,0.527-0.832,1.241-0.832,2.033c0,1.618,1.312,2.93,2.93,2.93
			c0.306,0,0.585-0.087,0.862-0.174c-0.031,0.17-0.102,0.325-0.102,0.504c0,1.618,1.312,2.93,2.93,2.93
			c1.102,0,2.026-0.633,2.527-1.533c0.5,0.899,1.424,1.533,2.526,1.533c1.618,0,2.93-1.312,2.93-2.93
			c0-0.184-0.072-0.344-0.105-0.518c0.297,0.102,0.603,0.189,0.935,0.189c1.618,0,2.93-1.312,2.93-2.93
			c0-0.789-0.32-1.5-0.828-2.026c0.916-0.495,1.562-1.431,1.562-2.546C449.97,61.998,448.666,60.693,447.056,60.684z
			 M440.092,69.454c-2.719,0-4.923-2.204-4.923-4.923c0-2.719,2.204-4.923,4.923-4.923c2.719,0,4.923,2.204,4.923,4.923
			C445.015,67.25,442.811,69.454,440.092,69.454z"/>
		<path d="M458.14,46.137c0-1.657-1.344-3.001-3.001-3.001h-21.762c-1.657,0-3.001,1.344-3.001,3.001
			c0,1.658,1.344,3.001,3.001,3.001h21.762C456.796,49.139,458.14,47.795,458.14,46.137z"/>
		<path d="M433.377,37.107h31.951c1.657,0,3.001-1.344,3.001-3.001c0-1.657-1.344-3.001-3.001-3.001h-31.951
			c-1.657,0-3.001,1.344-3.001,3.001C430.375,35.764,431.719,37.107,433.377,37.107z"/>
	</g>
</g>
<g id="Layer_2">
</g>
<g id="Layer_3">
</g>
<g id="Layer_4">
</g>
<g id="Layer_5">
</g>
</svg>
