<?xml version="1.0" encoding="utf-8"?>
<!-- Generator: Adobe Illustrator 17.0.0, SVG Export Plug-In . SVG Version: 6.00 Build 0)  -->
<!DOCTYPE svg PUBLIC "-//W3C//DTD SVG 1.1//EN" "http://www.w3.org/Graphics/SVG/1.1/DTD/svg11.dtd">
<svg version="1.1" xmlns="http://www.w3.org/2000/svg" xmlns:xlink="http://www.w3.org/1999/xlink" x="0px" y="0px" width="80px"
	 height="80px" viewBox="309.5 15.5 80 80" enable-background="new 309.5 15.5 80 80" xml:space="preserve">
<g id="Layer_1">
</g>
<g id="Layer_2">
</g>
<g id="Layer_3">
</g>
<g id="Layer_4">
</g>
<g id="Layer_5">
	<g>
		<g>
			<path d="M322.495,48.265c11.893-3.818,23.791-7.615,35.688-11.416c0.492-1.249,1.385-2.315,2.678-3.154l0.372-0.238l14.203-4.085
				c0.134-1.289-0.253-1.798-1.514-1.648c-1.281,0.152-1.79-0.407-1.773-1.33c0.02-1.062-0.451-1.627-1.583-1.756
				c-5.713,1.643-11.427,3.286-17.141,4.929c-1.248,0.806-1.807,1.759-1.969,2.93c-0.22,1.588-0.82,2.171-2.568,2.702
				c-8.996,2.734-17.992,5.481-27.008,8.209c-1.44,0.436-2.537,1.097-2.899,2.564c2.776,12.359,5.553,24.718,8.329,37.078
				c0.715,3.18,3.374,2.373,3.374,2.373S324.918,59.786,322.495,48.265z"/>
		</g>
		<g>
			<path d="M313.014,42.204c11.893-3.818,23.791-7.615,35.688-11.416c0.492-1.249,1.385-2.315,2.678-3.154l0.372-0.238l14.203-4.085
				c0.134-1.289-0.253-1.798-1.514-1.648c-1.281,0.152-1.79-0.407-1.773-1.33c0.02-1.062-0.451-1.627-1.583-1.756
				c-5.713,1.643-11.427,3.286-17.141,4.929c-1.248,0.806-1.807,1.759-1.969,2.93c-0.22,1.588-0.82,2.171-2.568,2.702
				c-8.996,2.734-17.992,5.482-27.008,8.209c-1.44,0.436-2.537,1.097-2.899,2.564c2.776,12.359,5.553,24.718,8.329,37.078
				c0.715,3.18,3.374,2.373,3.374,2.373S315.437,53.724,313.014,42.204z"/>
		</g>
		<path d="M387.216,53.328c-1.564,5.71-3.104,11.385-4.871,16.826c-0.327,1.006-0.822,1.857-1.651,2.688
			c-13.889,6.348-27.869,12.631-41.643,19.088c-1.759,0.825-1.967,0.935-2.682-2.245c-2.776-12.359-5.553-24.718-8.329-37.077
			c0.361-1.466,1.459-2.128,2.898-2.564c9.016-2.728,18.012-5.476,27.008-8.209c1.748-0.531,2.348-1.115,2.568-2.702
			c0.162-1.171,0.721-2.124,1.969-2.93c5.714-1.643,11.427-3.286,17.141-4.929c1.132,0.129,1.603,0.694,1.583,1.756
			c-0.018,0.923,0.492,1.482,1.772,1.33c1.282-0.152,1.668,0.367,1.514,1.703c-0.314,2.725-0.572,5.512-0.781,8.32
			c-0.029,0.387-0.057,0.775-0.098,1.354c1.38-0.477,2.718-1.023,4.015-1.359c0.685-0.178,2.183-0.365,1.81,1.313
			C388.672,48.229,387.912,50.787,387.216,53.328z M338.808,89.278c0.061-0.017,0.122-0.034,0.183-0.05
			c-0.079-1.939-0.141-3.876-0.21-5.807c-0.239-6.727-0.392-13.434-0.42-20.114c-0.006-1.342,0.454-2.005,1.744-2.54
			c0.417-0.173,0.844-0.306,1.267-0.453c12.653-4.372,25.322-8.697,37.982-13.051c0.49-0.169,0.98-0.338,1.539-0.531
			c0.145-2.684,0.307-5.225,0.531-7.785c-16.626,5.311-33.253,10.618-49.871,15.953C333.977,66.421,336.433,77.877,338.808,89.278z"
			/>
	</g>
</g>
</svg>
