<?xml version="1.0" encoding="utf-8"?>
<!-- Generator: Adobe Illustrator 17.0.0, SVG Export Plug-In . SVG Version: 6.00 Build 0)  -->
<!DOCTYPE svg PUBLIC "-//W3C//DTD SVG 1.1//EN" "http://www.w3.org/Graphics/SVG/1.1/DTD/svg11.dtd">
<svg version="1.1" xmlns="http://www.w3.org/2000/svg" xmlns:xlink="http://www.w3.org/1999/xlink" x="0px" y="0px" width="80px"
	 height="80px" viewBox="109.5 315.5 80 80" enable-background="new 109.5 315.5 80 80" xml:space="preserve">
<g id="Layer_1">
</g>
<g id="Layer_2">
</g>
<g id="Layer_3">
</g>
<g id="Layer_4">
</g>
<g id="Layer_5">
	<g>
		<path fill-rule="evenodd" clip-rule="evenodd" d="M145.833,353.231c-2.557-0.397-2.791,1.091-4.606,1.907
			c-0.966,0.435-1.755-0.337-1.755-3.604v-9.111h-9.111c-3.267,0-4.039-0.789-3.604-1.755c0.817-1.815,2.305-2.049,1.907-4.606
			c-0.681-4.382-7.675-4.381-8.357,0c-0.398,2.557,1.091,2.791,1.907,4.606c0.435,0.966-0.337,1.755-3.604,1.755H109.5v9.111
			c0,3.267,0.789,4.039,1.755,3.604c1.815-0.817,2.05-2.305,4.606-1.907c4.381,0.681,4.381,7.675,0,8.357
			c-2.556,0.398-2.791-1.091-4.606-1.907c-0.966-0.435-1.755,0.337-1.755,3.604v9.111h9.111c3.267,0,4.039-0.789,3.604-1.755
			c-0.817-1.815-2.305-2.05-1.907-4.606c0.682-4.381,7.675-4.381,8.357,0c0.397,2.557-1.091,2.791-1.907,4.606
			c-0.435,0.966,0.337,1.755,3.604,1.755h9.111v-9.111c0-3.267,0.789-4.039,1.755-3.604c1.815,0.817,2.05,2.305,4.606,1.907
			C150.214,360.906,150.215,353.912,145.833,353.231z"/>
		<path fill-rule="evenodd" clip-rule="evenodd" d="M185.432,345.77c-2.615,0.045-2.592,1.568-4.26,2.694
			c-0.887,0.599-1.806-0.033-2.37-3.288l-1.571-9.076l-9.075,1.57c-3.255,0.563-3.887,1.482-3.288,2.37
			c1.126,1.668,2.649,1.644,2.694,4.26c0.077,4.482-6.89,5.687-8.324,1.441c-0.837-2.478,0.605-2.968,1.106-4.917
			c0.266-1.037-0.638-1.69-3.893-1.127l-9.076,1.57l1.57,9.076c0.563,3.255,1.482,3.887,2.37,3.288
			c1.667-1.126,1.644-2.649,4.26-2.694c4.482-0.077,5.687,6.89,1.44,8.324c-2.478,0.837-2.968-0.606-4.917-1.106
			c-1.038-0.266-1.69,0.638-1.127,3.893l1.57,9.075l9.076-1.571c3.255-0.563,4.159,0.09,3.893,1.127
			c-0.501,1.949-1.943,2.439-1.106,4.917c1.434,4.247,8.401,3.041,8.324-1.44c-0.045-2.615-1.568-2.592-2.694-4.26
			c-0.6-0.888,0.033-1.807,3.288-2.37l9.075-1.57l-1.57-9.075c-0.563-3.255,0.09-4.159,1.127-3.893
			c1.949,0.501,2.439,1.943,4.917,1.106C191.119,352.66,189.914,345.693,185.432,345.77z"/>
	</g>
</g>
</svg>
