<?xml version="1.0" encoding="utf-8"?>
<!-- Generator: Adobe Illustrator 17.0.0, SVG Export Plug-In . SVG Version: 6.00 Build 0)  -->
<!DOCTYPE svg PUBLIC "-//W3C//DTD SVG 1.1//EN" "http://www.w3.org/Graphics/SVG/1.1/DTD/svg11.dtd">
<svg version="1.1" xmlns="http://www.w3.org/2000/svg" xmlns:xlink="http://www.w3.org/1999/xlink" x="0px" y="0px" width="80px"
	 height="80px" viewBox="209.5 315.5 80 80" enable-background="new 209.5 315.5 80 80" xml:space="preserve">
<g id="Layer_1">
</g>
<g id="Layer_2">
</g>
<g id="Layer_3">
</g>
<g id="Layer_4">
</g>
<g id="Layer_5">
	<g>
		<path d="M228.251,338.965v-3.705c0-6.383,5.192-11.575,11.575-11.575c6.383,0,11.575,5.192,11.575,11.575v3.705h7.919
			c0.089,0,0.176,0.011,0.265,0.013v-3.719c0-10.913-8.846-19.759-19.759-19.759c-10.913,0-19.759,8.846-19.759,19.759v3.719
			c0.089-0.003,0.175-0.013,0.265-0.013H228.251z"/>
		<path d="M265.458,361.573v-13.401c0-3.39-2.748-6.138-6.138-6.138h-38.989c-3.39,0-6.138,2.748-6.138,6.138v28.814
			c0,3.39,2.748,6.138,6.138,6.138h30.473c-0.186-1.055-0.301-2.134-0.301-3.241C250.503,370.857,256.937,363.307,265.458,361.573z
			 M245.689,374.71h-11.726l2.522-13.333c-1.641-1.086-2.724-2.945-2.724-5.06c0-3.35,2.716-6.066,6.066-6.066
			c3.35,0,6.066,2.716,6.066,6.066c0,2.115-1.084,3.975-2.724,5.06L245.689,374.71z"/>
		<path d="M269.189,364.266c-8.625,0-15.617,6.992-15.617,15.617c0,8.625,6.992,15.617,15.617,15.617
			c8.625,0,15.617-6.992,15.617-15.617C284.806,371.258,277.814,364.266,269.189,364.266z M269.885,388.707
			c-0.504,0.504-1.113,0.755-1.828,0.755c-0.715,0-1.323-0.252-1.822-0.755c-0.499-0.504-0.749-1.113-0.749-1.828
			s0.25-1.323,0.749-1.822c0.499-0.499,1.106-0.748,1.822-0.748c0.715,0,1.325,0.25,1.828,0.748c0.504,0.5,0.755,1.107,0.755,1.822
			S270.388,388.203,269.885,388.707z M273.985,377.816c-0.358,0.68-1.084,1.475-2.179,2.385c-0.141,0.124-0.34,0.292-0.596,0.504
			c-1.051,0.857-1.577,1.542-1.577,2.054c0,0.097,0.007,0.198,0.02,0.305c0.013,0.106,0.033,0.23,0.059,0.371l-3.577,0.026
			c-0.026-0.203-0.042-0.351-0.046-0.444c-0.004-0.093-0.006-0.179-0.006-0.258c0-0.539,0.092-1.052,0.278-1.538
			c0.185-0.486,0.49-0.998,0.914-1.537c0.15-0.186,0.389-0.46,0.715-0.822c1.025-1.113,1.537-2.057,1.537-2.835
			c0-0.75-0.258-1.369-0.775-1.854c-0.517-0.486-1.172-0.729-1.967-0.729c-0.363,0-0.778,0.067-1.246,0.199
			c-0.468,0.133-1.029,0.341-1.682,0.623l1.166-3.419c0.804-0.203,1.473-0.345,2.007-0.424c0.534-0.08,1.022-0.12,1.464-0.12
			c1.758,0,3.202,0.491,4.332,1.471c1.131,0.981,1.696,2.218,1.696,3.71C274.522,376.359,274.343,377.136,273.985,377.816z"/>
	</g>
</g>
</svg>
