<?xml version="1.0" encoding="utf-8"?>
<!-- Generator: Adobe Illustrator 17.0.0, SVG Export Plug-In . SVG Version: 6.00 Build 0)  -->
<!DOCTYPE svg PUBLIC "-//W3C//DTD SVG 1.1//EN" "http://www.w3.org/Graphics/SVG/1.1/DTD/svg11.dtd">
<svg version="1.1" xmlns="http://www.w3.org/2000/svg" xmlns:xlink="http://www.w3.org/1999/xlink" x="0px" y="0px" width="80px"
	 height="80px" viewBox="-90.5 115.5 80 80" enable-background="new -90.5 115.5 80 80" xml:space="preserve">
<g id="Layer_1">
	<g>
		<path d="M-10.501,127.561c0-2.917-1.105-4.035-4.02-4.036c-12.006-0.005-24.012-0.002-36.018-0.002
			c-11.9,0-23.8-0.001-35.701,0.001c-3.23,0.001-4.26,1.04-4.26,4.276c0,14.869-0.001,29.739,0.001,44.608
			c0,2.919,1.097,4.035,4.02,4.035c23.959,0.005,47.918,0.005,71.877,0.001c3.029-0.001,4.1-1.087,4.101-4.115
			C-10.5,157.405-10.5,142.483-10.501,127.561z M-15.39,166.658c-23.459,0-46.811,0-70.245,0c0-12.761,0-25.432,0-38.202
			c23.428,0,46.778,0,70.245,0C-15.39,141.278-15.39,153.953-15.39,166.658z"/>
		<path d="M-58.617,162.294c2.068,0,4.091,0,6.209,0c0-5.823,0-11.562,0-17.47c-2.113,0-4.103,0-6.209,0
			C-58.617,150.632-58.617,156.408-58.617,162.294z"/>
		<path d="M-33.808,162.312c2.126,0,4.111,0,6.207,0c0-5.826,0-11.562,0-17.426c-2.012,0-4.042,0-6.207,0
			C-33.808,150.614-33.808,156.386-33.808,162.312z"/>
		<path d="M-45.868,162.258c2.112,0,4.178,0,6.336,0c0-3.91,0-7.748,0-11.72c-2.102,0-4.172,0-6.336,0
			C-45.868,154.436-45.868,158.275-45.868,162.258z"/>
		<path d="M-72.251,162.31c2.084,0,4.069,0,6.202,0c0-3.884,0-7.753,0-11.805c-2.086,0-4.108,0-6.202,0
			C-72.251,154.477-72.251,158.348-72.251,162.31z"/>
		<path d="M-42.609,179.625c-2.686,0-5.305,0.012-7.891,0.013c-2.587-0.001-5.205-0.013-7.891-0.013
			c-0.136,3.085-0.986,5.824-4.066,7.374c0.133,0.16,0.266,0.32,0.4,0.48c3.836,0,7.674,0,11.558,0c3.884,0,7.721,0,11.558,0
			c0.133-0.16,0.266-0.32,0.4-0.48C-41.622,185.449-42.472,182.71-42.609,179.625z"/>
		<polygon points="-54.851,138.162 -41.808,146.02 -25.134,134.309 -26.96,131.71 -41.941,142.232 -54.731,134.526 -75.74,145.361 
			-74.285,148.184 		"/>
	</g>
</g>
<g id="Layer_2">
</g>
<g id="Layer_3">
</g>
<g id="Layer_4">
</g>
<g id="Layer_5">
</g>
</svg>
