<?xml version="1.0" encoding="utf-8"?>
<!-- Generator: Adobe Illustrator 17.0.0, SVG Export Plug-In . SVG Version: 6.00 Build 0)  -->
<!DOCTYPE svg PUBLIC "-//W3C//DTD SVG 1.1//EN" "http://www.w3.org/Graphics/SVG/1.1/DTD/svg11.dtd">
<svg version="1.1" xmlns="http://www.w3.org/2000/svg" xmlns:xlink="http://www.w3.org/1999/xlink" x="0px" y="0px" width="80px"
	 height="80px" viewBox="309.5 115.5 80 80" enable-background="new 309.5 115.5 80 80" xml:space="preserve">
<g id="Layer_1">
</g>
<g id="Layer_2">
</g>
<g id="Layer_3">
</g>
<g id="Layer_4">
</g>
<g id="Layer_5">
	<g>
		<path d="M349.5,115.5c-22.091,0-40,17.909-40,40s17.909,40,40,40c22.091,0,40-17.909,40-40S371.591,115.5,349.5,115.5z
			 M349.5,190.843c-19.519,0-35.343-15.823-35.343-35.343s15.823-35.343,35.343-35.343s35.343,15.824,35.343,35.343
			S369.019,190.843,349.5,190.843z"/>
		<g>
			<path d="M369.563,155.972c0-1.556-0.453-2.854-1.654-2.854c-1.083,0-1.653,1.279-1.653,2.894
				c-0.039,1.634,0.571,2.874,1.653,2.874C369.052,158.885,369.563,157.665,369.563,155.972z"/>
			<path d="M341.606,147.595c-2.271,0-3.923,2.772-3.923,7.993c0,4.984,1.534,7.815,3.894,7.815c2.655,0,3.923-3.097,3.923-7.993
				C345.5,150.692,344.29,147.595,341.606,147.595z"/>
			<path d="M356.737,147.595c-2.271,0-3.923,2.772-3.923,7.993c0,4.984,1.534,7.815,3.894,7.815c2.655,0,3.923-3.097,3.923-7.993
				C360.631,150.692,359.421,147.595,356.737,147.595z"/>
			<path d="M376.256,158.413c-1.083,0-1.673,1.279-1.673,2.894c-0.02,1.634,0.61,2.874,1.673,2.874c1.142,0,1.653-1.221,1.653-2.913
				C377.909,159.712,377.456,158.413,376.256,158.413z"/>
			<path d="M349.5,123.157c-17.834,0-32.343,14.509-32.343,32.343s14.509,32.343,32.343,32.343s32.343-14.509,32.343-32.343
				S367.334,123.157,349.5,123.157z M328.363,165.086h-2.507v-16.753h-0.059l-3.333,1.799l-0.501-1.977l4.188-2.241h2.212V165.086z
				 M341.43,165.41c-3.746,0-6.283-3.51-6.341-9.852c0-6.43,2.772-9.969,6.666-9.969c4.041,0,6.342,3.599,6.342,9.704
				C348.096,161.811,345.677,165.41,341.43,165.41z M356.56,165.41c-3.746,0-6.283-3.51-6.341-9.852c0-6.43,2.772-9.969,6.666-9.969
				c4.041,0,6.342,3.599,6.342,9.704C363.226,161.811,360.807,165.41,356.56,165.41z M364.878,156.07
				c0-2.559,1.398-3.995,3.09-3.995c1.792,0,2.973,1.378,2.973,3.818c0,2.696-1.417,4.035-3.071,4.035
				C366.276,159.928,364.898,158.649,364.878,156.07z M368.855,165.302h-1.103l7.519-13.228h1.103L368.855,165.302z
				 M376.216,165.223c-1.594,0-2.972-1.279-2.992-3.838c0-2.579,1.397-4.016,3.09-4.016c1.791,0,2.953,1.378,2.953,3.818
				C379.267,163.884,377.85,165.223,376.216,165.223z"/>
		</g>
	</g>
</g>
</svg>
