<?xml version="1.0" encoding="utf-8"?>
<!-- Generator: Adobe Illustrator 17.0.0, SVG Export Plug-In . SVG Version: 6.00 Build 0)  -->
<!DOCTYPE svg PUBLIC "-//W3C//DTD SVG 1.1//EN" "http://www.w3.org/Graphics/SVG/1.1/DTD/svg11.dtd">
<svg version="1.1" xmlns="http://www.w3.org/2000/svg" xmlns:xlink="http://www.w3.org/1999/xlink" x="0px" y="0px" width="80px"
	 height="80px" viewBox="-90.5 415.5 80 80" enable-background="new -90.5 415.5 80 80" xml:space="preserve">
<g id="Layer_1">
</g>
<g id="Layer_2">
</g>
<g id="Layer_3">
</g>
<g id="Layer_4">
</g>
<g id="Layer_5">
	<g>
		<path d="M-50.5,415.5c-22.091,0-40,17.909-40,40c0,22.091,17.909,40,40,40s40-17.909,40-40C-10.5,433.409-28.409,415.5-50.5,415.5
			z M-50.5,490.843c-19.519,0-35.343-15.823-35.343-35.343c0-19.519,15.823-35.343,35.343-35.343s35.343,15.824,35.343,35.343
			C-15.157,475.019-30.981,490.843-50.5,490.843z"/>
		<path d="M-50.5,423.157c-17.834,0-32.343,14.509-32.343,32.343s14.509,32.343,32.343,32.343s32.343-14.509,32.343-32.343
			S-32.666,423.157-50.5,423.157z M-49.062,470.705v5.159h-3.125v-5.011c-2.877-0.05-5.854-0.942-7.59-2.183l1.19-3.323
			c1.786,1.19,4.365,2.133,7.144,2.133c3.521,0,5.902-2.034,5.902-4.861c0-2.729-1.935-4.415-5.605-5.903
			c-5.06-1.984-8.185-4.267-8.185-8.582c0-4.117,2.927-7.242,7.49-7.986v-5.011h3.076v4.813c2.977,0.099,5.01,0.893,6.448,1.735
			l-1.24,3.274c-1.041-0.595-3.075-1.687-6.25-1.687c-3.819,0-5.258,2.282-5.258,4.267c0,2.579,1.835,3.869,6.15,5.654
			c5.109,2.084,7.689,4.663,7.689,9.078C-41.224,466.19-43.952,469.861-49.062,470.705z"/>
	</g>
</g>
</svg>
