<?xml version="1.0" encoding="utf-8"?>
<!-- Generator: Adobe Illustrator 17.0.0, SVG Export Plug-In . SVG Version: 6.00 Build 0)  -->
<!DOCTYPE svg PUBLIC "-//W3C//DTD SVG 1.1//EN" "http://www.w3.org/Graphics/SVG/1.1/DTD/svg11.dtd">
<svg version="1.1" xmlns="http://www.w3.org/2000/svg" xmlns:xlink="http://www.w3.org/1999/xlink" x="0px" y="0px" width="80px"
	 height="80px" viewBox="209.5 415.5 80 80" enable-background="new 209.5 415.5 80 80" xml:space="preserve">
<g id="Layer_1">
</g>
<g id="Layer_2">
</g>
<g id="Layer_3">
</g>
<g id="Layer_4">
</g>
<g id="Layer_5">
	<g>
		<path d="M251.819,467.216c1.32-1.003,2.662-1.977,4.018-2.93c0.48-0.337,0.565-0.671,0.304-1.192
			c-0.483-0.968-0.892-1.973-1.381-2.937c-0.25-0.493-0.211-0.837,0.158-1.265c0.706-0.818,1.49-1.623,1.965-2.572
			c0.783-1.565,1.788-2.309,3.235-1.665c0.803,0.076,1.319,0.075,1.811,0.184c0.753,0.167,1.104-0.135,1.316-0.836
			c0.44-1.453,0.922-2.894,1.415-4.331c0.226-0.659,0.066-1.077-0.569-1.394c-0.876-0.438-1.706-0.969-2.581-1.411
			c-0.557-0.281-0.742-0.639-0.716-1.282c0.061-1.514,0.08-3.037-0.029-4.546c-0.049-0.679,0.159-0.983,0.699-1.262
			c0.931-0.482,1.831-1.022,2.754-1.519c0.477-0.257,0.698-0.545,0.492-1.134c-0.545-1.563-1.041-3.144-1.539-4.723
			c-0.162-0.511-0.378-0.81-1.008-0.705c-1.097,0.183-2.205,0.331-3.313,0.387c-0.344,0.017-0.822-0.221-1.038-0.499
			c-0.972-1.254-1.908-2.541-2.771-3.871c-0.223-0.344-0.296-0.945-0.16-1.33c0.358-1.015,0.845-1.988,1.33-2.954
			c0.248-0.494,0.154-0.792-0.282-1.103c-1.377-0.981-2.744-1.977-4.094-2.995c-0.433-0.327-0.754-0.307-1.141,0.065
			c-0.804,0.774-1.615,1.546-2.477,2.252c-0.266,0.218-0.758,0.381-1.064,0.291c-1.614-0.476-3.212-1.014-4.791-1.599
			c-0.303-0.112-0.629-0.492-0.712-0.809c-0.282-1.076-0.477-2.176-0.672-3.272c-0.102-0.576-0.378-0.772-0.972-0.749
			c-1.144,0.044-2.294-0.045-3.438,0.003c-2.483,0.105-2.284-0.433-2.669,2.12c-0.085,0.565-0.297,1.117-0.337,1.683
			c-0.049,0.693-0.368,0.966-1.026,1.147c-1.495,0.41-2.974,0.892-4.428,1.429c-0.53,0.196-0.853,0.155-1.243-0.235
			c-0.765-0.765-1.594-1.466-2.366-2.224c-0.443-0.435-0.808-0.447-1.31-0.066c-1.266,0.961-2.556,1.894-3.869,2.789
			c-0.607,0.414-0.656,0.827-0.337,1.448c0.479,0.931,0.933,1.883,1.293,2.864c0.119,0.325,0.037,0.849-0.16,1.143
			c-0.923,1.372-1.895,2.713-2.907,4.021c-0.195,0.253-0.655,0.455-0.974,0.431c-1.074-0.081-2.142-0.262-3.207-0.431
			c-0.663-0.105-0.973,0.163-1.164,0.798c-0.466,1.55-0.978,3.088-1.521,4.613c-0.188,0.528-0.062,0.816,0.4,1.069
			c0.978,0.536,1.928,1.125,2.918,1.638c0.561,0.29,0.732,0.65,0.698,1.289c-0.079,1.511-0.007,3.03-0.091,4.541
			c-0.022,0.391-0.301,0.902-0.623,1.117c-0.896,0.6-1.866,1.094-2.828,1.59c-0.554,0.286-0.686,0.636-0.479,1.228
			c0.523,1.499,1.043,3.003,1.468,4.532c0.207,0.743,0.627,0.871,1.265,0.789c1.037-0.133,2.072-0.314,3.113-0.362
			c0.35-0.016,0.836,0.216,1.054,0.495c0.996,1.278,1.945,2.595,2.848,3.941c0.197,0.293,0.289,0.816,0.167,1.133
			c-0.385,1.007-0.884,1.971-1.357,2.943c-0.256,0.525-0.247,0.926,0.292,1.301c1.36,0.947,2.668,1.969,4.047,2.886
			c0.256,0.17,0.856,0.138,1.104-0.053c0.829-0.637,1.599-1.359,2.334-2.105c0.498-0.505,0.928-0.559,1.603-0.299
			c1.411,0.543,2.89,0.911,4.315,1.424c0.331,0.119,0.714,0.489,0.803,0.817c0.284,1.039,0.468,2.109,0.636,3.175
			c0.103,0.654,0.423,0.922,1.077,0.917c1.619-0.014,3.237,0.009,4.856,0.01c0.603,0,0.891-0.296,0.99-0.912
			c0.17-1.064,0.377-2.128,0.675-3.161c0.096-0.333,0.48-0.703,0.816-0.825c1.489-0.542,2.999-1.031,4.523-1.465
			c0.343-0.098,0.873-0.022,1.142,0.193c0.869,0.697,1.661,1.489,2.471,2.257C250.984,467.534,251.344,467.577,251.819,467.216z
			 M237.516,452.826c-5.272,0-9.545-4.274-9.545-9.545s4.274-9.545,9.545-9.545c5.272,0,9.545,4.274,9.545,9.545
			S242.788,452.826,237.516,452.826z"/>
		<path d="M288.478,455.486c-0.349-0.174-0.679-0.386-1.028-0.562c-0.222-0.112-0.296-0.255-0.285-0.51
			c0.024-0.603,0.032-1.21-0.012-1.81c-0.02-0.271,0.064-0.391,0.279-0.503c0.371-0.192,0.729-0.407,1.097-0.605
			c0.19-0.102,0.278-0.217,0.196-0.452c-0.217-0.622-0.414-1.252-0.613-1.881c-0.064-0.204-0.15-0.323-0.402-0.281
			c-0.437,0.073-0.878,0.132-1.319,0.154c-0.137,0.007-0.328-0.088-0.413-0.199c-0.387-0.499-0.76-1.012-1.104-1.541
			c-0.089-0.137-0.118-0.376-0.064-0.53c0.143-0.404,0.336-0.792,0.53-1.176c0.099-0.197,0.061-0.316-0.112-0.439
			c-0.548-0.391-1.093-0.787-1.63-1.193c-0.173-0.13-0.3-0.122-0.454,0.026c-0.32,0.308-0.643,0.616-0.987,0.897
			c-0.106,0.087-0.302,0.152-0.424,0.116c-0.643-0.19-1.279-0.404-1.908-0.637c-0.121-0.045-0.25-0.196-0.284-0.322
			c-0.112-0.428-0.19-0.866-0.268-1.303c-0.041-0.229-0.151-0.307-0.387-0.298c-0.456,0.018-0.914-0.018-1.369,0.001
			c-0.989,0.042-0.909-0.173-1.063,0.844c-0.034,0.225-0.118,0.445-0.134,0.67c-0.019,0.276-0.146,0.385-0.409,0.457
			c-0.595,0.163-1.184,0.355-1.763,0.569c-0.211,0.078-0.34,0.062-0.495-0.093c-0.305-0.305-0.635-0.584-0.942-0.886
			c-0.176-0.173-0.322-0.178-0.522-0.026c-0.504,0.383-1.018,0.754-1.541,1.111c-0.242,0.165-0.261,0.329-0.134,0.577
			c0.191,0.371,0.371,0.75,0.515,1.14c0.047,0.129,0.015,0.338-0.064,0.455c-0.367,0.546-0.755,1.08-1.158,1.601
			c-0.078,0.101-0.261,0.181-0.388,0.172c-0.428-0.032-0.853-0.104-1.277-0.172c-0.264-0.042-0.388,0.065-0.464,0.318
			c-0.186,0.617-0.389,1.23-0.606,1.837c-0.075,0.21-0.025,0.325,0.159,0.426c0.39,0.213,0.768,0.448,1.162,0.652
			c0.223,0.116,0.291,0.259,0.278,0.513c-0.032,0.602-0.003,1.207-0.036,1.808c-0.009,0.156-0.12,0.359-0.248,0.445
			c-0.357,0.239-0.743,0.436-1.126,0.633c-0.221,0.114-0.273,0.253-0.191,0.489c0.208,0.597,0.415,1.196,0.585,1.805
			c0.082,0.296,0.249,0.347,0.504,0.314c0.413-0.053,0.825-0.125,1.24-0.144c0.139-0.007,0.333,0.086,0.42,0.197
			c0.397,0.509,0.774,1.034,1.134,1.569c0.078,0.117,0.115,0.325,0.067,0.451c-0.153,0.401-0.352,0.785-0.54,1.172
			c-0.102,0.209-0.098,0.369,0.116,0.518c0.541,0.377,1.062,0.784,1.611,1.149c0.102,0.068,0.341,0.055,0.439-0.021
			c0.33-0.254,0.637-0.541,0.929-0.838c0.198-0.201,0.37-0.223,0.638-0.119c0.562,0.216,1.151,0.363,1.718,0.567
			c0.132,0.048,0.284,0.195,0.32,0.325c0.113,0.414,0.186,0.84,0.253,1.265c0.041,0.26,0.168,0.367,0.429,0.365
			c0.645-0.005,1.289,0.003,1.934,0.004c0.24,0,0.355-0.118,0.394-0.363c0.068-0.424,0.15-0.847,0.269-1.259
			c0.038-0.133,0.191-0.28,0.325-0.329c0.593-0.216,1.194-0.411,1.801-0.583c0.137-0.039,0.348-0.009,0.455,0.077
			c0.346,0.277,0.662,0.593,0.984,0.899c0.162,0.154,0.305,0.171,0.494,0.027c0.526-0.399,1.06-0.787,1.6-1.167
			c0.191-0.134,0.225-0.267,0.121-0.475c-0.192-0.385-0.355-0.786-0.55-1.17c-0.099-0.196-0.084-0.333,0.063-0.504
			c0.281-0.326,0.593-0.646,0.783-1.024c0.312-0.623,0.712-0.92,1.288-0.663c0.32,0.03,0.525,0.03,0.721,0.073
			c0.3,0.066,0.44-0.054,0.524-0.333c0.175-0.579,0.367-1.153,0.563-1.725C288.795,455.778,288.731,455.612,288.478,455.486z
			 M277.895,460.347c-3.784,0-6.851-3.067-6.851-6.851c0-3.784,3.067-6.851,6.851-6.851c3.784,0,6.851,3.067,6.851,6.851
			C284.746,457.279,281.679,460.347,277.895,460.347z"/>
		<path d="M277.895,449.657c-2.117,0-3.839,1.722-3.839,3.839c0,2.117,1.722,3.839,3.839,3.839c2.116,0,3.838-1.722,3.838-3.839
			C281.733,451.379,280.011,449.657,277.895,449.657z"/>
		<path d="M278.415,478.095c0.518-0.268,1.019-0.569,1.532-0.845c0.265-0.143,0.388-0.303,0.274-0.631
			c-0.303-0.87-0.579-1.749-0.856-2.627c-0.09-0.284-0.21-0.451-0.561-0.392c-0.61,0.102-1.227,0.184-1.843,0.215
			c-0.191,0.01-0.458-0.123-0.577-0.278c-0.541-0.698-1.061-1.413-1.542-2.154c-0.124-0.191-0.165-0.526-0.089-0.74
			c0.199-0.565,0.47-1.106,0.74-1.643c0.138-0.275,0.086-0.441-0.157-0.614c-0.766-0.546-1.527-1.1-2.278-1.666
			c-0.241-0.182-0.419-0.171-0.635,0.036c-0.448,0.43-0.898,0.86-1.378,1.253c-0.148,0.121-0.422,0.212-0.592,0.162
			c-0.898-0.265-1.787-0.564-2.665-0.89c-0.169-0.062-0.35-0.274-0.396-0.45c-0.157-0.598-0.265-1.21-0.374-1.821
			c-0.057-0.32-0.211-0.429-0.541-0.416c-0.637,0.025-1.276-0.025-1.913,0.002c-1.382,0.059-1.271-0.241-1.485,1.179
			c-0.048,0.315-0.166,0.621-0.188,0.936c-0.027,0.386-0.204,0.538-0.571,0.638c-0.832,0.228-1.655,0.496-2.464,0.795
			c-0.295,0.109-0.474,0.086-0.692-0.131c-0.426-0.425-0.887-0.816-1.316-1.238c-0.246-0.242-0.45-0.248-0.729-0.037
			c-0.705,0.535-1.422,1.053-2.153,1.552c-0.338,0.23-0.365,0.46-0.187,0.806c0.267,0.518,0.519,1.047,0.719,1.593
			c0.066,0.181,0.021,0.473-0.089,0.636c-0.513,0.763-1.055,1.509-1.617,2.237c-0.109,0.141-0.364,0.253-0.542,0.24
			c-0.597-0.045-1.191-0.146-1.784-0.24c-0.369-0.059-0.542,0.091-0.648,0.444c-0.259,0.862-0.544,1.718-0.846,2.566
			c-0.105,0.294-0.034,0.454,0.223,0.595c0.544,0.298,1.073,0.626,1.623,0.911c0.312,0.162,0.407,0.361,0.388,0.717
			c-0.044,0.841-0.004,1.686-0.051,2.526c-0.012,0.218-0.167,0.502-0.346,0.622c-0.499,0.334-1.038,0.609-1.573,0.885
			c-0.308,0.159-0.381,0.354-0.266,0.683c0.291,0.834,0.58,1.671,0.817,2.522c0.115,0.413,0.349,0.484,0.704,0.439
			c0.577-0.074,1.153-0.175,1.732-0.201c0.195-0.009,0.465,0.12,0.587,0.275c0.554,0.711,1.082,1.444,1.584,2.192
			c0.109,0.163,0.161,0.454,0.093,0.63c-0.214,0.56-0.492,1.097-0.755,1.637c-0.142,0.292-0.137,0.515,0.163,0.724
			c0.756,0.527,1.484,1.095,2.251,1.605c0.142,0.095,0.476,0.077,0.614-0.029c0.461-0.354,0.89-0.756,1.299-1.171
			c0.277-0.281,0.516-0.311,0.892-0.166c0.785,0.302,1.608,0.507,2.401,0.792c0.184,0.066,0.397,0.272,0.447,0.454
			c0.158,0.578,0.26,1.173,0.354,1.767c0.058,0.364,0.235,0.513,0.599,0.51c0.9-0.008,1.801,0.005,2.702,0.006
			c0.335,0,0.496-0.165,0.551-0.507c0.095-0.592,0.209-1.184,0.375-1.758c0.054-0.185,0.267-0.391,0.454-0.459
			c0.828-0.302,1.668-0.574,2.516-0.815c0.191-0.054,0.486-0.012,0.635,0.107c0.483,0.388,0.924,0.828,1.375,1.256
			c0.226,0.215,0.426,0.238,0.69,0.038c0.734-0.558,1.481-1.1,2.236-1.63c0.267-0.188,0.314-0.373,0.169-0.663
			c-0.269-0.538-0.496-1.098-0.768-1.634c-0.139-0.274-0.117-0.466,0.088-0.704c0.393-0.455,0.829-0.903,1.093-1.431
			c0.436-0.87,0.994-1.285,1.8-0.926c0.447,0.042,0.734,0.042,1.008,0.102c0.419,0.093,0.614-0.075,0.732-0.465
			c0.245-0.809,0.513-1.61,0.787-2.409c0.126-0.367,0.037-0.599-0.317-0.776c-0.488-0.243-0.949-0.539-1.436-0.785
			c-0.31-0.157-0.413-0.356-0.398-0.713c0.034-0.842,0.045-1.69-0.016-2.529C277.998,478.419,278.114,478.25,278.415,478.095z
			 M277.039,481.286c-0.031,0.759,0.287,1.315,0.947,1.649c0.223,0.112,0.439,0.235,0.656,0.359c0.165,0.094,0.33,0.188,0.498,0.279
			c-0.213,0.625-0.418,1.242-0.61,1.863c-0.12-0.014-0.248-0.024-0.391-0.034l-0.241-0.019c-0.263-0.096-0.525-0.144-0.78-0.144
			c-0.892,0-1.616,0.541-2.15,1.61c-0.16,0.32-0.443,0.641-0.743,0.982l-0.213,0.242c-0.471,0.545-0.548,1.173-0.223,1.814
			c0.133,0.265,0.256,0.536,0.379,0.807c0.068,0.15,0.136,0.3,0.206,0.449c-0.545,0.387-1.084,0.778-1.614,1.177
			c-0.363-0.347-0.738-0.705-1.151-1.035c-0.275-0.223-0.669-0.352-1.076-0.352c-0.163,0-0.32,0.021-0.465,0.063
			c-0.859,0.244-1.728,0.526-2.581,0.836c-0.504,0.184-0.935,0.636-1.076,1.125c-0.131,0.453-0.243,0.949-0.345,1.538l-1.98-0.004
			c-0.082-0.49-0.181-1.02-0.323-1.537c-0.134-0.488-0.576-0.954-1.075-1.135c-0.373-0.134-0.751-0.251-1.13-0.368
			c-0.421-0.13-0.841-0.259-1.25-0.417c-0.268-0.103-0.51-0.153-0.742-0.153c-0.454,0-0.867,0.185-1.227,0.551
			c-0.343,0.348-0.646,0.63-0.935,0.871c-0.332-0.23-0.658-0.469-0.984-0.707c-0.211-0.155-0.423-0.309-0.636-0.462
			c0.221-0.448,0.448-0.911,0.637-1.405c0.18-0.471,0.099-1.109-0.199-1.55c-0.521-0.778-1.068-1.535-1.624-2.247
			c-0.31-0.397-0.856-0.663-1.36-0.663c-0.52,0.022-0.974,0.084-1.427,0.147l-0.155,0.022c-0.184-0.627-0.39-1.241-0.617-1.893
			c0.464-0.242,0.902-0.48,1.326-0.764c0.436-0.293,0.761-0.869,0.79-1.402c0.025-0.443,0.026-0.889,0.027-1.336
			c0.001-0.397,0.002-0.795,0.024-1.191c0.039-0.764-0.274-1.323-0.932-1.662c-0.308-0.16-0.611-0.335-0.913-0.51
			c-0.101-0.058-0.203-0.117-0.304-0.175c0.225-0.645,0.432-1.278,0.622-1.889c0.483,0.077,0.982,0.151,1.491,0.189l0.106,0.004
			c0.488,0,1.013-0.253,1.305-0.629c0.59-0.763,1.147-1.535,1.657-2.294c0.291-0.432,0.374-1.068,0.197-1.543
			c-0.189-0.518-0.419-1.009-0.622-1.418c0.532-0.369,1.07-0.756,1.61-1.16c0.121,0.112,0.241,0.223,0.362,0.333
			c0.225,0.206,0.449,0.411,0.664,0.626c0.326,0.325,0.698,0.488,1.108,0.488c0.205,0,0.409-0.04,0.641-0.126
			c0.805-0.297,1.606-0.555,2.382-0.769c1.012-0.279,1.269-0.989,1.307-1.538c0.008-0.121,0.044-0.242,0.075-0.365
			c0.04-0.162,0.079-0.325,0.104-0.488c0,0,0.041-0.278,0.047-0.319c0.14,0,0.302-0.002,0.488-0.01
			c0.126-0.005,0.253-0.007,0.38-0.007c0.175,0,1.108,0.014,1.117,0.014c0.09,0.495,0.187,0.989,0.317,1.481
			c0.128,0.493,0.547,0.961,1.017,1.137c0.927,0.343,1.844,0.65,2.731,0.911c0.126,0.037,0.257,0.055,0.393,0.055
			c0.387,0,0.817-0.155,1.121-0.404c0.387-0.317,0.746-0.646,1.12-1.002c0.528,0.394,1.059,0.783,1.593,1.166
			c-0.207,0.42-0.42,0.877-0.59,1.361c-0.177,0.503-0.097,1.169,0.193,1.619c0.453,0.698,0.974,1.425,1.59,2.223
			c0.308,0.399,0.851,0.668,1.351,0.668c0.521-0.026,1.021-0.076,1.584-0.16c0.199,0.632,0.4,1.263,0.613,1.89
			c-0.111,0.062-0.22,0.124-0.328,0.184c-0.283,0.16-0.566,0.32-0.854,0.469c-0.673,0.348-0.985,0.909-0.93,1.667
			C277.073,479.552,277.078,480.297,277.039,481.286z"/>
		<path d="M265.09,471.788c-4.56,0-8.256,3.696-8.256,8.256c0,4.56,3.696,8.256,8.256,8.256c4.56,0,8.256-3.696,8.256-8.256
			C273.346,475.484,269.65,471.788,265.09,471.788z M265.09,485.371c-2.942,0-5.327-2.385-5.327-5.327
			c0-2.942,2.385-5.327,5.327-5.327s5.327,2.385,5.327,5.327C270.418,482.986,268.033,485.371,265.09,485.371z"/>
	</g>
</g>
</svg>
