<?xml version="1.0" encoding="utf-8"?>
<!-- Generator: Adobe Illustrator 17.0.0, SVG Export Plug-In . SVG Version: 6.00 Build 0)  -->
<!DOCTYPE svg PUBLIC "-//W3C//DTD SVG 1.1//EN" "http://www.w3.org/Graphics/SVG/1.1/DTD/svg11.dtd">
<svg version="1.1" xmlns="http://www.w3.org/2000/svg" xmlns:xlink="http://www.w3.org/1999/xlink" x="0px" y="0px" width="80px"
	 height="80px" viewBox="9.5 215.5 80 80" enable-background="new 9.5 215.5 80 80" xml:space="preserve">
<g id="Layer_1">
</g>
<g id="Layer_2">
</g>
<g id="Layer_3">
</g>
<g id="Layer_4">
</g>
<g id="Layer_5">
	<g>
		<path d="M87.453,240.868l-7.768,4.697c0,0-3.011,1.626-6.082-4.034c-3.071-5.66-0.422-6.744-0.422-6.744l8.31-4.637
			c0,0,1.445-0.723,0.422-1.746c-1.024-1.024-8.327-4.18-15.897,1.746c-5.269,4.125-5.058,12.043-5.058,12.043
			s0.284,2.873-1.612,4.77c-8.589,8.592-29.369,28.83-35.389,34.851c-1.912,1.912-2.31,4.693-1.013,6.94
			c1.863,3.23,6.278,3.827,8.917,1.192c5.843-5.836,25.067-24.66,34.402-33.898l0,0c1.938-1.916,4.33-1.571,5.835-1.571
			c1.505,0,6.383,1.204,11.682-2.228s5.721-9.333,5.721-10.718C89.5,240.146,87.453,240.868,87.453,240.868z M28.232,287.914
			c-1.218,0.007-2.237-1.001-2.247-2.222c-0.01-1.242,1.007-2.261,2.247-2.252c1.233,0.009,2.226,1.007,2.226,2.237
			C30.458,286.907,29.463,287.907,28.232,287.914z"/>
		<path d="M39.204,254.259l-3.364,3.364c1.002,1.68,2.186,3.365,3.48,5.024c2.805-2.751,5.668-5.561,8.358-8.207
			c-1.687-1.32-3.401-2.526-5.11-3.545L39.204,254.259z"/>
		<path d="M65.56,272.866c-1.368-1.751-3.276-4.075-5.539-6.604c-2.61,2.568-5.386,5.298-8.149,8.014
			c-0.249,0.245-0.496,0.488-0.744,0.731c2.559,2.292,4.913,4.227,6.682,5.609c5.45,4.258,9.793,10.985,9.793,10.985h2.044
			l3.449-3.449l3.449-3.449v-2.044C76.546,282.659,69.818,278.316,65.56,272.866z"/>
		<path d="M31.582,252.172c1.023,1.023,2.069,2.069,2.81,2.81l5.195-5.195l-2.64-2.64c0,0-1.533-1.533-1.533-4.258
			c0-2.725,0-5.535,0-5.535s-0.222-1.106,0.511-1.959c1.391-1.618,5.195,0.085,7.068-1.788c1.873-1.874,3.321-3.321,3.321-3.321
			s1.845-1.221-0.028-3.094c-2.81-2.81-7.125-7.125-7.125-7.125s-1.307-1.503-2.81,0c-1.235,1.235-3.193,3.193-3.193,3.193
			s-1.541,1.127-1.405,4.045c0.067,1.446-0.264,2.228-0.852,2.895c-1.194,1.356-4.888,0.051-7.102,2.266
			s-19.042,15.022-12.995,32.479c0,0,0.95,3.874,2.64,3.662c0.933-0.117,0.596-1.618,0.596-1.618s-1.533-8.175,3.492-13.2
			C22.555,248.766,29.708,250.299,31.582,252.172z"/>
	</g>
</g>
</svg>
