<?xml version="1.0" encoding="utf-8"?>
<!-- Generator: Adobe Illustrator 17.0.0, SVG Export Plug-In . SVG Version: 6.00 Build 0)  -->
<!DOCTYPE svg PUBLIC "-//W3C//DTD SVG 1.1//EN" "http://www.w3.org/Graphics/SVG/1.1/DTD/svg11.dtd">
<svg version="1.1" xmlns="http://www.w3.org/2000/svg" xmlns:xlink="http://www.w3.org/1999/xlink" x="0px" y="0px" width="80px"
	 height="80px" viewBox="409.5 315.5 80 80" enable-background="new 409.5 315.5 80 80" xml:space="preserve">
<g id="Layer_1">
</g>
<g id="Layer_2">
</g>
<g id="Layer_3">
</g>
<g id="Layer_4">
</g>
<g id="Layer_5">
	<g>
		<path d="M465.718,315.5h-32.437c-3.319,0-6.009,2.69-6.009,6.009v67.981c0,3.319,2.69,6.009,6.009,6.009h32.437
			c3.319,0,6.009-2.69,6.009-6.009v-67.981C471.728,318.19,469.037,315.5,465.718,315.5z M470.228,389.491
			c0,2.486-2.023,4.509-4.51,4.509h-32.437c-2.486,0-4.51-2.022-4.51-4.509V321.51c0-2.486,2.023-4.51,4.51-4.51h32.437
			c2.486,0,4.51,2.023,4.51,4.51V389.491z"/>
		<rect x="430.799" y="327.786" width="37.401" height="54.72"/>
		<rect x="447.138" y="386.128" width="3.851" height="3.851"/>
		<path d="M449.063,384.051c-2.21,0-4.002,1.792-4.002,4.002c0,2.21,1.792,4.002,4.002,4.002c2.21,0,4.002-1.792,4.002-4.002
			C453.065,385.843,451.274,384.051,449.063,384.051z M451.489,390.479h-4.85v-4.851h4.85V390.479z"/>
	</g>
</g>
</svg>
