<?xml version="1.0" encoding="utf-8"?>
<!-- Generator: Adobe Illustrator 17.0.0, SVG Export Plug-In . SVG Version: 6.00 Build 0)  -->
<!DOCTYPE svg PUBLIC "-//W3C//DTD SVG 1.1//EN" "http://www.w3.org/Graphics/SVG/1.1/DTD/svg11.dtd">
<svg version="1.1" xmlns="http://www.w3.org/2000/svg" xmlns:xlink="http://www.w3.org/1999/xlink" x="0px" y="0px" width="80px"
	 height="80px" viewBox="409.5 115.5 80 80" enable-background="new 409.5 115.5 80 80" xml:space="preserve">
<g id="Layer_1">
</g>
<g id="Layer_2">
</g>
<g id="Layer_3">
</g>
<g id="Layer_4">
</g>
<g id="Layer_5">
	<g>
		<circle cx="449.5" cy="132.838" r="17.339"/>
		<polygon points="449.766,153.556 439.497,161.743 449.766,193.787 459.721,162.722 		"/>
		<path d="M425.836,150.92c-5.472,0-9.908,4.436-9.908,9.908v24.764c0,5.472,4.436,9.908,9.908,9.908h21.357l-14.286-44.58H425.836z
			"/>
		<path d="M473.164,150.92h-6.54l-14.286,44.58h20.826c5.472,0,9.908-4.436,9.908-9.908v-24.764
			C483.072,155.356,478.636,150.92,473.164,150.92z M476.493,181.386h-12.365c-0.821,0-1.486-0.665-1.486-1.486
			c0-0.821,0.665-1.486,1.486-1.486h12.365c0.821,0,1.486,0.665,1.486,1.486C477.98,180.721,477.314,181.386,476.493,181.386z"/>
	</g>
</g>
</svg>
