<?xml version="1.0" encoding="utf-8"?>
<!-- Generator: Adobe Illustrator 17.0.0, SVG Export Plug-In . SVG Version: 6.00 Build 0)  -->
<!DOCTYPE svg PUBLIC "-//W3C//DTD SVG 1.1//EN" "http://www.w3.org/Graphics/SVG/1.1/DTD/svg11.dtd">
<svg version="1.1" xmlns="http://www.w3.org/2000/svg" xmlns:xlink="http://www.w3.org/1999/xlink" x="0px" y="0px" width="80px"
	 height="80px" viewBox="-90.5 15.5 80 80" enable-background="new -90.5 15.5 80 80" xml:space="preserve">
<g id="Layer_1">
	<g>
		<path d="M-88.085,38.83h8.301c1.323,0,2.396-0.934,2.396-2.084s-1.073-2.084-2.396-2.084h-8.301c-1.323,0-2.396,0.934-2.396,2.084
			S-89.408,38.83-88.085,38.83z"/>
		<path d="M-77.388,81.304c0-1.15-1.073-2.083-2.396-2.083h-8.301c-1.323,0-2.396,0.933-2.396,2.083
			c0,1.151,1.073,2.084,2.396,2.084h8.301C-78.46,83.388-77.388,82.455-77.388,81.304z"/>
		<path d="M-88.085,68.536h8.301c1.323,0,2.396-0.933,2.396-2.084s-1.073-2.084-2.396-2.084h-8.301
			c-1.323,0-2.396,0.933-2.396,2.084S-89.408,68.536-88.085,68.536z"/>
		<path d="M-25.52,15.496h-46.091c-8.284,0-15,6.716-15,15v1.165h6.827c2.974,0,5.396,2.283,5.396,5.085s-2.422,5.085-5.396,5.085
			h-6.827v4.683h6.827c2.974,0,5.396,2.283,5.396,5.085s-2.422,5.083-5.396,5.083h-6.827v4.685h6.827
			c2.974,0,5.396,2.283,5.396,5.085s-2.422,5.083-5.396,5.083h-6.827v0.938v3.748h6.827c2.974,0,5.396,2.28,5.396,5.083
			s-2.422,5.083-5.396,5.083h-5.62c2.29,5.354,7.601,9.109,13.792,9.109h46.091c8.284,0,15-6.716,15-15v-8.022V38.519v-8.022
			C-10.52,22.212-17.235,15.496-25.52,15.496z M-15.521,80.496c0,5.515-4.485,10-10,10h-43.95V28.519h43.95c5.515,0,10,4.485,10,10
			V80.496z M-25.52,23.519h-46.091c-4.871,0-9.155,2.358-11.895,5.955c0.529-6.13,5.63-10.977,11.896-10.977h46.089
			c6.266,0,11.367,4.845,11.896,10.977C-16.365,25.877-20.649,23.519-25.52,23.519z"/>
		<path d="M-88.085,53.682h8.301c1.323,0,2.396-0.933,2.396-2.083c0-1.151-1.073-2.084-2.396-2.084h-8.301
			c-1.323,0-2.396,0.933-2.396,2.084C-90.48,52.75-89.408,53.682-88.085,53.682z"/>
		<path d="M-62.796,74.096h3.2l4.053-10.454h12.373l4.053,10.454h3.413l-13.227-32.64L-62.796,74.096z M-54.262,60.87l5.12-12.8
			l4.907,12.8H-54.262z"/>
		<polygon points="-29.534,51.369 -32.534,51.369 -32.534,56.275 -37.44,56.275 -37.44,59.275 -32.534,59.275 -32.534,64.181 
			-29.534,64.181 -29.534,59.275 -24.627,59.275 -24.627,56.275 -29.534,56.275 		"/>
	</g>
</g>
<g id="Layer_2">
</g>
<g id="Layer_3">
</g>
<g id="Layer_4">
</g>
<g id="Layer_5">
</g>
</svg>
