<?xml version="1.0" encoding="utf-8"?>
<!-- Generator: Adobe Illustrator 17.0.0, SVG Export Plug-In . SVG Version: 6.00 Build 0)  -->
<!DOCTYPE svg PUBLIC "-//W3C//DTD SVG 1.1//EN" "http://www.w3.org/Graphics/SVG/1.1/DTD/svg11.dtd">
<svg version="1.1" xmlns="http://www.w3.org/2000/svg" xmlns:xlink="http://www.w3.org/1999/xlink" x="0px" y="0px" width="80px"
	 height="80px" viewBox="9.5 415.5 80 80" enable-background="new 9.5 415.5 80 80" xml:space="preserve">
<g id="Layer_1">
</g>
<g id="Layer_2">
</g>
<g id="Layer_3">
</g>
<g id="Layer_4">
</g>
<g id="Layer_5">
	<path d="M75.405,415.5H23.595c-7.784,0-14.095,6.31-14.095,14.095v51.811c0,7.784,6.31,14.095,14.095,14.095h51.811
		c7.784,0,14.095-6.31,14.095-14.095v-51.811C89.5,421.81,83.19,415.5,75.405,415.5z M39.712,478.84l-6.174,4.066
		c0,0-5.873-19.275-12.8-21.232c0,0,5.866-6.174,10.089,0c4.146,6.061,4.819,9.336,4.819,9.336s14.908-28.912,40.206-42.916
		l2.409,2.409C78.261,430.503,49.048,449.778,39.712,478.84z"/>
</g>
</svg>
