<?xml version="1.0" encoding="utf-8"?>
<!-- Generator: Adobe Illustrator 17.0.0, SVG Export Plug-In . SVG Version: 6.00 Build 0)  -->
<!DOCTYPE svg PUBLIC "-//W3C//DTD SVG 1.1//EN" "http://www.w3.org/Graphics/SVG/1.1/DTD/svg11.dtd">
<svg version="1.1" xmlns="http://www.w3.org/2000/svg" xmlns:xlink="http://www.w3.org/1999/xlink" x="0px" y="0px" width="80px"
	 height="80px" viewBox="109.5 415.5 80 80" enable-background="new 109.5 415.5 80 80" xml:space="preserve">
<g id="Layer_1">
</g>
<g id="Layer_2">
</g>
<g id="Layer_3">
</g>
<g id="Layer_4">
</g>
<g id="Layer_5">
	<path d="M172.631,415.5h-46.262c-8.47,0-15.335,6.866-15.335,15.335v49.329c0,8.47,6.866,15.335,15.335,15.335h46.262
		c8.47,0,15.335-6.866,15.335-15.335v-49.329C187.966,422.366,181.101,415.5,172.631,415.5z M131.375,481.615
		c-4.343,0-7.864-2.471-7.864-5.52c0-3.049,3.521-5.52,7.864-5.52c4.343,0,7.864,2.471,7.864,5.52
		C139.238,479.144,135.718,481.615,131.375,481.615z M131.375,461.02c-4.343,0-7.864-2.471-7.864-5.52
		c0-3.049,3.521-5.52,7.864-5.52c4.343,0,7.864,2.471,7.864,5.52C139.238,458.549,135.718,461.02,131.375,461.02z M131.375,440.425
		c-4.343,0-7.864-2.472-7.864-5.52s3.521-5.52,7.864-5.52c4.343,0,7.864,2.472,7.864,5.52S135.718,440.425,131.375,440.425z
		 M171.021,482.119h-23.667c-1.289,0-2.333-1.045-2.333-2.333c0-1.289,1.045-2.333,2.333-2.333h23.667
		c1.289,0,2.333,1.045,2.333,2.333C173.355,481.074,172.31,482.119,171.021,482.119z M171.021,472.405h-23.667
		c-1.289,0-2.333-1.045-2.333-2.333c0-1.289,1.045-2.333,2.333-2.333h23.667c1.289,0,2.333,1.045,2.333,2.333
		C173.355,471.36,172.31,472.405,171.021,472.405z M171.021,462.69h-23.667c-1.289,0-2.333-1.045-2.333-2.333
		c0-1.289,1.045-2.333,2.333-2.333h23.667c1.289,0,2.333,1.045,2.333,2.333C173.355,461.646,172.31,462.69,171.021,462.69z
		 M171.021,452.976h-23.667c-1.289,0-2.333-1.045-2.333-2.333c0-1.289,1.045-2.333,2.333-2.333h23.667
		c1.289,0,2.333,1.045,2.333,2.333C173.355,451.932,172.31,452.976,171.021,452.976z M171.021,443.262h-23.667
		c-1.289,0-2.333-1.045-2.333-2.333c0-1.289,1.045-2.333,2.333-2.333h23.667c1.289,0,2.333,1.045,2.333,2.333
		C173.355,442.217,172.31,443.262,171.021,443.262z M171.021,433.548h-23.667c-1.289,0-2.333-1.045-2.333-2.333
		c0-1.289,1.045-2.333,2.333-2.333h23.667c1.289,0,2.333,1.045,2.333,2.333C173.355,432.503,172.31,433.548,171.021,433.548z"/>
</g>
</svg>
