<?xml version="1.0" encoding="utf-8"?>
<!-- Generator: Adobe Illustrator 17.0.0, SVG Export Plug-In . SVG Version: 6.00 Build 0)  -->
<!DOCTYPE svg PUBLIC "-//W3C//DTD SVG 1.1//EN" "http://www.w3.org/Graphics/SVG/1.1/DTD/svg11.dtd">
<svg version="1.1" xmlns="http://www.w3.org/2000/svg" xmlns:xlink="http://www.w3.org/1999/xlink" x="0px" y="0px" width="80px"
	 height="80px" viewBox="409.5 215.5 80 80" enable-background="new 409.5 215.5 80 80" xml:space="preserve">
<g id="Layer_1">
</g>
<g id="Layer_2">
</g>
<g id="Layer_3">
</g>
<g id="Layer_4">
</g>
<g id="Layer_5">
	<g>
		<path d="M483.588,223.902c-2.736-1.673-5.688-2.145-9.026-1.839c0,2.415,0.016,4.763-0.003,7.112
			c-0.042,4.989-3.11,8.066-8.074,8.113c-1.125,0.011-2.251,0.034-3.374-0.002c-4.212-0.137-7.331-3.306-7.386-7.522
			c-0.033-2.533-0.006-5.067-0.006-7.794c-1.899,0-3.656,0-5.413,0c-1.709,0-3.418,0-5.405,0c0,2.264-0.004,4.428,0.001,6.592
			c0.005,2.107-0.263,4.133-1.662,5.841c-1.465,1.788-3.31,2.84-5.655,2.879c-1.479,0.025-2.962,0.036-4.439-0.025
			c-3.592-0.15-6.612-2.755-6.941-6.369c-0.261-2.867-0.053-5.777-0.053-8.606c-8.805-1.591-15.047,3.16-16.343,9.694
			c-0.043,0.215-0.203,0.406-0.308,0.608c0,17.422,0,34.844,0,52.267c0.906,3.322,2.35,6.287,5.294,8.329
			c2.108,1.463,4.428,2.28,6.974,2.283c18.486,0.023,36.973,0.036,55.459-0.002c5.575-0.012,10.36-3.858,11.839-9.296
			c0.121-0.445,0.288-0.876,0.434-1.314c0-17.422,0-34.844,0-52.267C488.508,229.023,486.876,225.913,483.588,223.902z
			 M483.356,281.757c-0.014,5.194-2.452,7.61-7.664,7.616c-17.529,0.019-35.058,0.016-52.587-0.002
			c-4.866-0.005-7.417-2.416-7.446-7.279c-0.067-11.488-0.034-22.977,0.009-34.465c0.011-3.029,1.485-4.403,4.527-4.407
			c9.83-0.013,19.661-0.005,29.491-0.005c0-0.004,0-0.008,0-0.012c9.594,0,19.187,0,28.781,0c3.447,0,4.88,1.373,4.885,4.8
			C483.371,259.253,483.386,270.505,483.356,281.757z"/>
		<path d="M433.205,233.444c1.166,0.147,2.362,0.099,3.543,0.083c2.831-0.039,4.239-1.447,4.262-4.282
			c0.024-2.901-0.102-5.807,0.037-8.701c0.112-2.322-0.598-4.025-2.747-5.028c-1.896,0-3.793,0-5.689,0
			c-1.483,0.836-2.774,1.801-2.767,3.751c0.011,3.493-0.04,6.986,0.01,10.479C429.884,231.806,431.135,233.183,433.205,233.444z"/>
		<path d="M459.602,226.838c0,6.117,1.181,7.202,7.28,6.692c0.059-0.005,0.118-0.003,0.177-0.009
			c2.336-0.26,3.585-1.618,3.604-3.997c0.023-2.954-0.132-5.916,0.048-8.859c0.142-2.309-0.559-3.993-2.544-5.149
			c-2.015,0-4.03,0-6.044,0c-1.939,1.086-2.738,2.681-2.557,4.944C459.735,222.573,459.602,224.711,459.602,226.838z"/>
		<path d="M473.423,249.545c-1.121-0.067-2.249-0.012-3.374-0.013c-0.948-0.001-1.895-0.019-2.842,0.002
			c-2.473,0.055-3.852,1.377-3.911,3.832c-0.048,2.012-0.058,4.028,0.012,6.039c0.077,2.209,1.517,3.665,3.697,3.736
			c2.07,0.068,4.146,0.06,6.217,0.002c2.103-0.059,3.624-1.469,3.718-3.541c0.1-2.186,0.092-4.383,0.006-6.571
			C476.867,250.99,475.486,249.669,473.423,249.545z"/>
		<path d="M431.622,249.536c-1.005-0.03-2.012-0.005-3.018-0.005c0,0.004,0,0.007,0,0.011c-1.124,0-2.251-0.054-3.371,0.012
			c-2.011,0.119-3.362,1.375-3.446,3.349c-0.096,2.244-0.105,4.5,0.001,6.743c0.096,2.037,1.519,3.411,3.55,3.491
			c2.127,0.083,4.262,0.078,6.389,0.002c2.142-0.077,3.62-1.612,3.681-3.778c0.057-2.01,0.049-4.024-0.001-6.035
			C435.35,250.989,433.943,249.606,431.622,249.536z"/>
		<path d="M431.633,270.282c-2.07-0.05-4.142-0.049-6.212-0.003c-2.114,0.047-3.557,1.416-3.644,3.561
			c-0.089,2.185-0.08,4.38,0.003,6.566c0.079,2.07,1.469,3.357,3.547,3.424c1.064,0.035,2.13,0.006,3.195,0.008
			c0.947,0.001,1.893,0.011,2.84,0c2.627-0.03,4.024-1.417,4.054-4.049c0.022-1.893,0.05-3.788-0.002-5.68
			C435.349,271.792,433.911,270.337,431.633,270.282z"/>
		<path d="M473.272,270.279c-2.07-0.046-4.142-0.045-6.212,0.002c-2.232,0.05-3.672,1.425-3.755,3.65
			c-0.077,2.068-0.069,4.143-0.005,6.212c0.071,2.313,1.505,3.643,3.86,3.693c0.946,0.02,1.893,0.003,2.84,0.003
			c0,0.002,0,0.005,0,0.007c1.065,0,2.13,0.02,3.195-0.004c2.219-0.049,3.687-1.421,3.755-3.624
			c0.066-2.128,0.075-4.262-0.007-6.389C476.86,271.723,475.385,270.326,473.272,270.279z"/>
		<path d="M456.105,273.914c-0.052-2.055-1.357-3.54-3.359-3.619c-2.304-0.091-4.617-0.094-6.92,0.009
			c-1.818,0.081-3.192,1.549-3.246,3.368c-0.067,2.246-0.071,4.497-0.01,6.744c0.053,1.949,1.442,3.35,3.375,3.402
			c2.306,0.062,4.616,0.064,6.921-0.012c1.841-0.061,3.159-1.47,3.23-3.325c0.043-1.122,0.008-2.248,0.008-3.372
			c0.002,0,0.004,0,0.006,0C456.109,276.044,456.132,274.978,456.105,273.914z"/>
		<path d="M446.052,263.134c2.187,0.08,4.381,0.081,6.567-0.004c2.082-0.081,3.424-1.576,3.478-3.704
			c0.025-1.005,0.004-2.012,0.006-3.018c0.002-1.124,0.029-2.25-0.004-3.373c-0.057-1.977-1.333-3.39-3.291-3.463
			c-2.304-0.086-4.617-0.092-6.921,0.004c-2.002,0.083-3.265,1.43-3.32,3.44c-0.06,2.188-0.064,4.38-0.003,6.568
			C442.62,261.553,444.085,263.062,446.052,263.134z"/>
	</g>
</g>
</svg>
