<?xml version="1.0" encoding="utf-8"?>
<!-- Generator: Adobe Illustrator 17.0.0, SVG Export Plug-In . SVG Version: 6.00 Build 0)  -->
<!DOCTYPE svg PUBLIC "-//W3C//DTD SVG 1.0//EN" "http://www.w3.org/TR/2001/REC-SVG-20010904/DTD/svg10.dtd">
<svg version="1.0" xmlns="http://www.w3.org/2000/svg" xmlns:xlink="http://www.w3.org/1999/xlink" x="0px" y="0px"
	 width="21.338px" height="21.85px" viewBox="188.853 258.35 21.338 21.85" enable-background="new 188.853 258.35 21.338 21.85"
	 xml:space="preserve">
<g id="Layer_1">
	<g>
		<path fill="#636363" d="M192.006,266.213h1.66c0.265,0,0.479-0.187,0.479-0.417s-0.215-0.417-0.479-0.417h-1.66
			c-0.265,0-0.479,0.187-0.479,0.417S191.741,266.213,192.006,266.213z"/>
		<path fill="#636363" d="M194.145,274.708c0-0.23-0.215-0.417-0.479-0.417h-1.66c-0.265,0-0.479,0.187-0.479,0.417
			c0,0.23,0.215,0.417,0.479,0.417h1.66C193.931,275.124,194.145,274.938,194.145,274.708z"/>
		<path fill="#636363" d="M192.006,272.154h1.66c0.265,0,0.479-0.187,0.479-0.417s-0.215-0.417-0.479-0.417h-1.66
			c-0.265,0-0.479,0.187-0.479,0.417S191.741,272.154,192.006,272.154z"/>
		<path fill="#636363" d="M204.519,261.546H195.3c-1.657,0-3,1.343-3,3v0.233h1.365c0.595,0,1.079,0.457,1.079,1.017
			s-0.484,1.017-1.079,1.017H192.3v0.937h1.365c0.595,0,1.079,0.457,1.079,1.017s-0.484,1.017-1.079,1.017H192.3v0.937h1.365
			c0.595,0,1.079,0.457,1.079,1.017s-0.484,1.017-1.079,1.017H192.3v0.188v0.75h1.365c0.595,0,1.079,0.456,1.079,1.017
			s-0.484,1.017-1.079,1.017h-1.124c0.458,1.071,1.52,1.822,2.758,1.822h9.218c1.657,0,3-1.343,3-3v-1.604v-6.791v-1.604
			C207.519,262.889,206.176,261.546,204.519,261.546z M206.518,274.546c0,1.103-0.897,2-2,2h-8.79v-12.396h8.79c1.103,0,2,0.897,2,2
			V274.546z M204.519,263.151H195.3c-0.974,0-1.831,0.472-2.379,1.191c0.106-1.226,1.126-2.195,2.379-2.195h9.218
			c1.253,0,2.273,0.969,2.379,2.195C206.35,263.622,205.493,263.151,204.519,263.151z"/>
		<path fill="#636363" d="M192.006,269.183h1.66c0.265,0,0.479-0.187,0.479-0.417c0-0.23-0.215-0.417-0.479-0.417h-1.66
			c-0.265,0-0.479,0.187-0.479,0.417C191.527,268.997,191.741,269.183,192.006,269.183z"/>
		<path fill="#636363" d="M197.063,273.266h0.64l0.811-2.091h2.475l0.811,2.091h0.683l-2.645-6.528L197.063,273.266z
			 M198.77,270.621l1.024-2.56l0.981,2.56H198.77z"/>
		<polygon fill="#636363" points="203.716,268.721 203.116,268.721 203.116,269.702 202.135,269.702 202.135,270.302 
			203.116,270.302 203.116,271.283 203.716,271.283 203.716,270.302 204.697,270.302 204.697,269.702 203.716,269.702 		"/>
	</g>
</g>
<g id="Layer_2">
</g>
<g id="Layer_3">
</g>
<g id="Layer_4">
</g>
<g id="Layer_5">
</g>
</svg>
