<?xml version="1.0" encoding="utf-8"?>
<!-- Generator: Adobe Illustrator 17.0.0, SVG Export Plug-In . SVG Version: 6.00 Build 0)  -->
<!DOCTYPE svg PUBLIC "-//W3C//DTD SVG 1.0//EN" "http://www.w3.org/TR/2001/REC-SVG-20010904/DTD/svg10.dtd">
<svg version="1.0" xmlns="http://www.w3.org/2000/svg" xmlns:xlink="http://www.w3.org/1999/xlink" x="0px" y="0px"
	 width="21.338px" height="21.85px" viewBox="109.838 231.5 21.338 21.85" enable-background="new 109.838 231.5 21.338 21.85"
	 xml:space="preserve">
<g id="Layer_1">
	<path fill="#636363" d="M120.509,234.335c-4.418,0-8,3.582-8,8c0,4.418,3.582,8,8,8s8-3.582,8-8
		C128.509,237.917,124.927,234.335,120.509,234.335z M120.509,249.735c-4.081,0-7.4-3.319-7.4-7.4s3.319-7.4,7.4-7.4
		s7.4,3.319,7.4,7.4S124.589,249.735,120.509,249.735z"/>
	<path fill="#636363" d="M118.603,237.627v9.416l6.296-4.708L118.603,237.627z M119.204,238.825l4.694,3.51l-4.694,3.51V238.825z"/>
</g>
<g id="Layer_2">
</g>
<g id="Layer_3">
</g>
<g id="Layer_4">
</g>
<g id="Layer_5">
</g>
</svg>
