<?xml version="1.0" encoding="utf-8"?>
<!-- Generator: Adobe Illustrator 17.0.0, SVG Export Plug-In . SVG Version: 6.00 Build 0)  -->
<!DOCTYPE svg PUBLIC "-//W3C//DTD SVG 1.0//EN" "http://www.w3.org/TR/2001/REC-SVG-20010904/DTD/svg10.dtd">
<svg version="1.0" xmlns="http://www.w3.org/2000/svg" xmlns:xlink="http://www.w3.org/1999/xlink" x="0px" y="0px"
	 width="21.338px" height="21.85px" viewBox="322 258.35 21.338 21.85" enable-background="new 322 258.35 21.338 21.85"
	 xml:space="preserve">
<g id="Layer_1">
	<g>
		<path fill="#636363" d="M330.268,261.944c-0.369,0-0.668,0.299-0.668,0.668v1.734c0,0.369,0.299,0.668,0.668,0.668
			s0.668-0.299,0.668-0.668v-1.734C330.936,262.243,330.637,261.944,330.268,261.944z"/>
		<g>
			<path fill="#636363" d="M329.444,271.265c0.957,0,1.734-0.878,1.734-1.961s-0.776-1.961-1.734-1.961s-1.734,0.878-1.734,1.961
				S328.486,271.265,329.444,271.265z M329.443,267.942c0.625,0,1.134,0.611,1.134,1.361s-0.509,1.361-1.134,1.361
				s-1.134-0.611-1.134-1.361S328.818,267.942,329.443,267.942z"/>
			<path fill="#636363" d="M332.132,272.571l-1.668-0.901c-0.309,0.171-0.652,0.276-1.02,0.276c-0.367,0-0.71-0.104-1.02-0.275
				l-1.667,0.9c-0.378,0.23-0.685,0.448-0.685,0.826v0.401c0,0.378,0.307,0.685,0.685,0.685h5.375c0.378,0,0.685-0.307,0.685-0.685
				v-0.401C332.817,273.019,332.58,272.801,332.132,272.571z M332.217,273.798c0,0.048-0.037,0.085-0.085,0.085h-5.375
				c-0.047,0-0.085-0.038-0.085-0.085v-0.4c0-0.027,0.052-0.104,0.396-0.313l1.372-0.74c0.326,0.135,0.662,0.202,1.003,0.202
				c0.342,0,0.678-0.067,1.004-0.203l1.399,0.757c0.37,0.189,0.37,0.26,0.37,0.298V273.798z"/>
			<g>
				<rect x="333.822" y="267.722" fill="#636363" width="5.332" height="0.6"/>
				<rect x="333.822" y="273.786" fill="#636363" width="5.332" height="0.6"/>
				<rect x="333.822" y="272.27" fill="#636363" width="5.332" height="0.6"/>
				<rect x="333.822" y="270.754" fill="#636363" width="5.332" height="0.6"/>
				<rect x="333.822" y="269.238" fill="#636363" width="5.332" height="0.6"/>
			</g>
		</g>
		<path fill="#636363" d="M335.071,261.944c-0.369,0-0.668,0.299-0.668,0.668v1.734c0,0.369,0.299,0.668,0.668,0.668
			s0.668-0.299,0.668-0.668v-1.734C335.738,262.243,335.439,261.944,335.071,261.944z"/>
	</g>
	<path fill="#636363" d="M339.518,263.734h-3.18v0.611c0,0.699-0.569,1.268-1.268,1.268c-0.699,0-1.268-0.569-1.268-1.268v-0.611
		h-2.267v0.611c0,0.699-0.569,1.268-1.268,1.268c-0.699,0-1.268-0.569-1.268-1.268v-0.611h-3.18c-0.636,0-1.151,0.515-1.151,1.151
		v10.572c0,0.636,0.515,1.151,1.151,1.151h13.698c0.636,0,1.151-0.515,1.151-1.151v-10.572
		C340.669,264.249,340.154,263.734,339.518,263.734z M340.069,275.457c0,0.304-0.248,0.551-0.552,0.551H325.82
		c-0.304,0-0.552-0.247-0.552-0.551v-10.572c0-0.304,0.248-0.551,0.552-0.551h2.58v0.011c0,1.03,0.837,1.868,1.867,1.868
		s1.867-0.838,1.867-1.868v-0.011h1.068v0.011c0,1.03,0.837,1.868,1.867,1.868s1.867-0.838,1.867-1.868v-0.011h2.58
		c0.304,0,0.552,0.247,0.552,0.551V275.457z"/>
</g>
<g id="Layer_2">
</g>
<g id="Layer_3">
</g>
<g id="Layer_4">
</g>
<g id="Layer_5">
</g>
</svg>
