<?xml version="1.0" encoding="utf-8"?>
<!-- Generator: Adobe Illustrator 17.0.0, SVG Export Plug-In . SVG Version: 6.00 Build 0)  -->
<!DOCTYPE svg PUBLIC "-//W3C//DTD SVG 1.0//EN" "http://www.w3.org/TR/2001/REC-SVG-20010904/DTD/svg10.dtd">
<svg version="1.0" xmlns="http://www.w3.org/2000/svg" xmlns:xlink="http://www.w3.org/1999/xlink" x="0px" y="0px"
	 width="21.338px" height="21.85px" viewBox="162.515 258.35 21.338 21.85" enable-background="new 162.515 258.35 21.338 21.85"
	 xml:space="preserve">
<g id="Layer_1">
	<g>
		<path fill="#636363" d="M178.278,264.162h-0.706c0-0.151,0-0.31,0-0.478c0-1.017-0.916-0.941-0.916-0.941s-2.798,0-3.513,0
			c-0.715,0-0.914,0.687-0.914,0.687l-0.312,0.732h-5.1c-0.902,0-1.634,0.731-1.634,1.634v7.484c0,0.902,0.732,1.634,1.634,1.634
			h6.792c-0.339-0.637-0.549-1.353-0.549-2.124c0-2.515,2.046-4.562,4.561-4.562c0.838,0,1.614,0.243,2.29,0.639v-3.072
			C179.912,264.893,179.181,264.162,178.278,264.162z M179.312,267.925c-0.546-0.197-1.111-0.296-1.689-0.296
			c-2.846,0-5.161,2.315-5.161,5.161c0,0.516,0.082,1.025,0.244,1.524h-5.887c-0.57,0-1.034-0.465-1.034-1.035v-7.483
			c0-0.57,0.464-1.034,1.034-1.034h5.497l0.467-1.097c0.048-0.138,0.135-0.323,0.362-0.323c0,0,3.516,0,3.518,0
			c0.245,0,0.31,0.084,0.31,0.342v1.078h1.306c0.57,0,1.034,0.464,1.034,1.034V267.925z"/>
		<path fill="#636363" d="M177.623,269.229c-1.967,0-3.561,1.594-3.561,3.561s1.594,3.561,3.561,3.561s3.561-1.594,3.561-3.561
			S179.59,269.229,177.623,269.229z M177.623,275.551c-1.522,0-2.761-1.239-2.761-2.761c0-1.523,1.239-2.762,2.761-2.762
			c1.523,0,2.762,1.239,2.762,2.762C180.385,274.313,179.146,275.551,177.623,275.551z"/>
		<path fill="#636363" d="M179.015,272.39h-0.992v-1.384c0-0.221-0.179-0.4-0.4-0.4c-0.221,0-0.4,0.179-0.4,0.4v2.184h0.206h0.594
			h0.992c0.221,0,0.4-0.179,0.4-0.4C179.415,272.569,179.236,272.39,179.015,272.39z"/>
	</g>
</g>
<g id="Layer_2">
</g>
<g id="Layer_3">
</g>
<g id="Layer_4">
</g>
<g id="Layer_5">
</g>
</svg>
