<?xml version="1.0" encoding="utf-8"?>
<!-- Generator: Adobe Illustrator 17.0.0, SVG Export Plug-In . SVG Version: 6.00 Build 0)  -->
<!DOCTYPE svg PUBLIC "-//W3C//DTD SVG 1.0//EN" "http://www.w3.org/TR/2001/REC-SVG-20010904/DTD/svg10.dtd">
<svg version="1.0" xmlns="http://www.w3.org/2000/svg" xmlns:xlink="http://www.w3.org/1999/xlink" x="0px" y="0px"
	 width="21.338px" height="21.85px" viewBox="267.869 258.35 21.338 21.85" enable-background="new 267.869 258.35 21.338 21.85"
	 xml:space="preserve">
<g id="Layer_1">
	<g>
		<path fill="#636363" d="M284.093,266.506l-9.03,2.341c0.154,2.223,0.571,6.073,1.684,8.523l8.028-3.87
			C284.774,273.5,283.864,271.432,284.093,266.506z M277.058,276.554c-0.835-2.199-1.202-5.275-1.359-7.252l7.767-2.014
			c-0.074,3.153,0.323,5.042,0.572,5.901L277.058,276.554z"/>
		<path fill="#636363" d="M283.548,263.517c0,0-0.339,0.078-0.869,0.199c-0.011-0.17-0.032-0.334-0.065-0.49
			c0.034-0.008,0.078-0.018,0.11-0.025c-0.037-0.228-0.132-0.377-0.252-0.473c-0.238-0.605-0.646-1.005-1.11-1.005
			c-0.478,0-0.884,0.438-1.118,1.075c-0.243-0.434-0.585-0.709-0.967-0.709c-0.477,0-0.89,0.428-1.123,1.064
			c-0.242-0.428-0.583-0.698-0.962-0.698c-0.477,0-0.89,0.428-1.124,1.063c-0.242-0.428-0.582-0.697-0.961-0.697
			c-0.567,0-1.047,0.599-1.238,1.439c-0.011,0.002-0.025,0.004-0.036,0.006c-1.747,0.26-1.524,1.524-1.524,1.524v1.74l1.42-0.368
			v-0.339c-0.006-0.061-0.007-0.163-0.001-0.281l-0.82,0.212v-1.018l-0.009-0.052c-0.018-0.146-0.003-0.674,1.021-0.827
			c0.428-0.064,1.096-0.192,1.863-0.349c0.031,0.168,0.052,0.349,0.052,0.546c0,0.035-0.004,0.067-0.006,0.101
			c-1.719,0.269-1.502,1.518-1.502,1.518v1.741l10.443-2.707v-1.412C284.774,263.108,283.548,263.517,283.548,263.517z
			 M274.53,264.146c0.153-0.448,0.392-0.725,0.578-0.725c0.155,0,0.351,0.19,0.502,0.513
			C275.212,264.015,274.848,264.087,274.53,264.146z M281.363,262.323c0.111,0,0.242,0.095,0.363,0.266
			c-0.117,0.018-0.199,0.042-0.199,0.042s-0.241,0.056-0.63,0.145C281.042,262.494,281.219,262.323,281.363,262.323z
			 M281.663,263.215c0.084-0.024,0.197-0.052,0.31-0.052c0.005,0,0.007,0.001,0.012,0.001c0.057,0.201,0.095,0.43,0.103,0.686
			c-0.439,0.099-0.95,0.214-1.488,0.333c-0.009-0.247-0.038-0.485-0.091-0.704C281.154,263.332,281.599,263.23,281.663,263.215z
			 M279.278,262.689c0.128,0,0.284,0.133,0.419,0.358c-0.296,0.067-0.612,0.137-0.943,0.211
			C278.906,262.901,279.114,262.689,279.278,262.689z M279.923,263.611c0.051,0.207,0.084,0.442,0.085,0.702
			c-0.496,0.109-1,0.218-1.488,0.321c-0.004-0.243-0.032-0.475-0.079-0.693C278.969,263.825,279.472,263.713,279.923,263.611z
			 M277.193,263.055c0.144,0,0.325,0.161,0.471,0.443c-0.345,0.075-0.69,0.149-1.029,0.222
			C276.789,263.308,277.015,263.055,277.193,263.055z M277.858,264.07c0.039,0.188,0.065,0.394,0.065,0.621
			c0,0.025-0.003,0.046-0.004,0.07c-0.558,0.116-1.065,0.216-1.481,0.292c0-0.233-0.027-0.453-0.067-0.664
			C276.854,264.287,277.358,264.179,277.858,264.07z M284.174,265.246l-9.243,2.396v-1.018l-0.009-0.051
			c-0.017-0.14-0.004-0.636,0.917-0.809v0.008l0.327-0.061l0.251-0.039l0-0.007l0.127-0.023c0.393-0.071,0.866-0.165,1.386-0.271
			l2.097-0.448l2.096-0.467l1.56-0.355c0.083-0.023,0.196-0.052,0.308-0.052c0.094,0,0.137,0.02,0.143,0.024
			c0,0,0.039,0.05,0.039,0.224V265.246z"/>
		<path fill="#636363" d="M274.471,269l-0.74,0.192v-1.521l-0.483,0.125c-0.155,2.451-0.041,6.451,0.396,8.242
			c0,0,0.697,0.44,2.229,0.764C274.977,274.335,274.616,271.043,274.471,269z M273.783,269.798l0.146-0.038
			c0.158,1.861,0.46,4.174,1.038,6.185c-0.369-0.118-0.632-0.23-0.797-0.308C273.893,274.277,273.768,271.889,273.783,269.798z"/>
	</g>
</g>
<g id="Layer_2">
</g>
<g id="Layer_3">
</g>
<g id="Layer_4">
</g>
<g id="Layer_5">
</g>
</svg>
