<?xml version="1.0" encoding="utf-8"?>
<!-- Generator: Adobe Illustrator 17.0.0, SVG Export Plug-In . SVG Version: 6.00 Build 0)  -->
<!DOCTYPE svg PUBLIC "-//W3C//DTD SVG 1.0//EN" "http://www.w3.org/TR/2001/REC-SVG-20010904/DTD/svg10.dtd">
<svg version="1.0" xmlns="http://www.w3.org/2000/svg" xmlns:xlink="http://www.w3.org/1999/xlink" x="0px" y="0px"
	 width="21.338px" height="21.85px" viewBox="215.192 231.5 21.338 21.85" enable-background="new 215.192 231.5 21.338 21.85"
	 xml:space="preserve">
<g id="Layer_1">
	<g>
		<path fill="#636363" d="M230.954,234.335h-10.186c-0.552,0-1,0.448-1,1v12.03c0,0.552,0.448,1,1,1h1.368v0.151v1.819h3.672v-1.819
			v-1.201v-1.427c-0.082,0.048-0.164,0.095-0.257,0.122c-0.186,0.411-0.601,0.698-1.081,0.698c-0.177,0-0.349-0.041-0.505-0.116
			c-0.155,0.075-0.327,0.116-0.505,0.116c-0.482,0-0.898-0.289-1.083-0.703c-0.087-0.027-0.164-0.073-0.241-0.118v1.428v0.449
			h-1.368c-0.221,0-0.4-0.179-0.4-0.4v-12.03c0-0.221,0.18-0.4,0.4-0.4h10.186c0.221,0,0.4,0.179,0.4,0.4v12.03
			c0,0.221-0.18,0.4-0.4,0.4h-2.912c-0.166,0-0.3,0.134-0.3,0.3c0,0.166,0.134,0.3,0.3,0.3h2.912c0.552,0,1-0.448,1-1v-12.03
			C231.954,234.783,231.506,234.335,230.954,234.335z M222.735,247.156c0.225,0.1,0.471,0.154,0.725,0.154
			c0.17,0,0.341-0.025,0.505-0.075c0.164,0.049,0.335,0.075,0.505,0.075c0.26,0,0.511-0.057,0.739-0.161v2.586h-2.474V247.156z"/>
		<path fill="#636363" d="M229.447,237.297c0,0.166-0.134,0.3-0.3,0.3h-6.571c-0.166,0-0.3-0.134-0.3-0.3l0,0
			c0-0.166,0.134-0.3,0.3-0.3h6.571C229.312,236.997,229.447,237.131,229.447,237.297L229.447,237.297z"/>
		<path fill="#636363" d="M226.675,238.542c0,0.166-0.134,0.3-0.3,0.3h-3.8c-0.166,0-0.3-0.134-0.3-0.3l0,0
			c0-0.166,0.134-0.3,0.3-0.3h3.8C226.541,238.242,226.675,238.376,226.675,238.542L226.675,238.542z"/>
	</g>
	<path fill="#636363" d="M226.389,243.31c0-0.393-0.318-0.711-0.71-0.713c0.081-0.116,0.138-0.248,0.138-0.4
		c0-0.394-0.32-0.714-0.714-0.714c-0.17,0-0.319,0.068-0.442,0.166c-0.061-0.333-0.339-0.59-0.689-0.59
		c-0.354,0-0.634,0.262-0.691,0.6c-0.124-0.105-0.28-0.176-0.455-0.176c-0.394,0-0.714,0.32-0.714,0.714
		c0,0.153,0.059,0.287,0.141,0.403c-0.384,0.012-0.693,0.323-0.693,0.71c0,0.271,0.156,0.498,0.378,0.619
		c-0.125,0.129-0.203,0.302-0.203,0.496c0,0.394,0.32,0.714,0.714,0.714c0.075,0,0.143-0.021,0.21-0.042
		c-0.007,0.041-0.025,0.079-0.025,0.123c0,0.394,0.32,0.714,0.714,0.714c0.269,0,0.494-0.154,0.616-0.374
		c0.122,0.219,0.347,0.374,0.616,0.374c0.394,0,0.714-0.32,0.714-0.714c0-0.045-0.018-0.084-0.026-0.126
		c0.072,0.025,0.147,0.046,0.228,0.046c0.394,0,0.714-0.32,0.714-0.714c0-0.192-0.078-0.366-0.202-0.494
		C226.231,243.81,226.389,243.581,226.389,243.31z M225.723,243.402c-0.165,0.089-0.279,0.25-0.308,0.436
		c-0.029,0.186,0.03,0.374,0.161,0.509c0.034,0.14-0.018,0.191-0.081,0.191c-0.066-0.023-0.138-0.034-0.208-0.034
		c-0.144,0-0.286,0.047-0.395,0.14c-0.162,0.139-0.254,0.347-0.215,0.557c0.002,0.014,0.021,0.091,0.024,0.105
		c-0.002-0.005-0.005-0.006-0.01-0.006c-0.02,0-0.063,0.033-0.113,0.033c-0.05,0-0.081-0.045-0.092-0.065
		c-0.106-0.19-0.307-0.308-0.524-0.308h-0.001c-0.218,0-0.419,0.119-0.524,0.31c-0.011,0.019-0.04,0.063-0.09,0.063
		c-0.063,0-0.115-0.051-0.115-0.114c0.039-0.208-0.026-0.427-0.185-0.566c-0.113-0.1-0.254-0.155-0.398-0.155
		c-0.058,0-0.116,0.009-0.174,0.027c-0.01,0.002-0.02,0.002-0.029,0.002c-0.072,0-0.113-0.046-0.113-0.102
		c0.131-0.135,0.208-0.362,0.18-0.547c-0.028-0.185-0.124-0.386-0.288-0.475c-0.021-0.011-0.066-0.042-0.066-0.093
		c0-0.06,0.05-0.108,0.112-0.11c0.221-0.007,0.42-0.134,0.519-0.332c0.099-0.198,0.08-0.434-0.047-0.614
		c-0.031-0.12,0.021-0.171,0.083-0.171c0.115,0.098,0.278,0.155,0.435,0.155c0.066,0,0.132-0.01,0.192-0.032
		c0.202-0.074,0.384-0.234,0.42-0.446c0.006-0.038,0.034-0.101,0.1-0.101c0.064,0,0.093,0.062,0.1,0.098
		c0.037,0.208,0.183,0.382,0.382,0.455c0.067,0.025,0.138,0.038,0.208,0.038c0.136,0,0.27-0.046,0.378-0.134
		c0.027-0.007,0.051-0.01,0.071-0.01c0.074,0,0.106,0.042,0.106,0.092c-0.128,0.183-0.158,0.45-0.056,0.647s0.291,0.351,0.514,0.353
		c0.063,0,0.114,0.051,0.114,0.113C225.789,243.361,225.743,243.392,225.723,243.402z"/>
	<circle fill="#636363" cx="223.981" cy="243.534" r="0.641"/>
</g>
<g id="Layer_2">
</g>
<g id="Layer_3">
</g>
<g id="Layer_4">
</g>
<g id="Layer_5">
</g>
</svg>
