<?xml version="1.0" encoding="utf-8"?>
<!-- Generator: Adobe Illustrator 17.0.0, SVG Export Plug-In . SVG Version: 6.00 Build 0)  -->
<!DOCTYPE svg PUBLIC "-//W3C//DTD SVG 1.0//EN" "http://www.w3.org/TR/2001/REC-SVG-20010904/DTD/svg10.dtd">
<svg version="1.0" xmlns="http://www.w3.org/2000/svg" xmlns:xlink="http://www.w3.org/1999/xlink" x="0px" y="0px"
	 width="21.338px" height="21.85px" viewBox="215.192 258.35 21.338 21.85" enable-background="new 215.192 258.35 21.338 21.85"
	 xml:space="preserve">
<g id="Layer_1">
	<g>
		<path fill="#636363" d="M227.106,272.35c1.061-0.477,1.907-1.764,1.907-3.588c0-2.193-1.347-4.053-3.803-4.053
			c-2.396,0-3.922,1.812-3.922,4.22c0,2.622,1.693,3.958,3.505,4.077c0.191,0.012,0.381,0.048,0.56,0.119
			c1.073,0.453,2.026,0.799,3.171,1.132l0.525-1.407c-0.632-0.131-1.323-0.274-1.943-0.453V272.35z M225.151,271.563
			c-1.216,0-1.955-1.168-1.943-2.694c0-1.502,0.715-2.718,1.955-2.718s1.931,1.216,1.931,2.682
			C227.094,270.406,226.378,271.563,225.151,271.563z"/>
		<path fill="#636363" d="M231.391,273.803c1.013-1.172,1.617-2.651,1.617-4.257c0-3.807-3.391-6.893-7.573-6.893
			c-4.183,0-7.573,3.086-7.573,6.893s3.391,6.893,7.573,6.893c1.572,0,3.032-0.436,4.243-1.182c1.848,0.795,4.184,0.089,4.184,0.089
			C232.508,274.838,231.78,274.255,231.391,273.803z M231.731,275.035c-0.698,0-1.31-0.11-1.817-0.329l-0.286-0.124l-0.266,0.164
			c-1.16,0.715-2.519,1.094-3.928,1.094c-3.845,0-6.974-2.823-6.974-6.294s3.129-6.294,6.974-6.294s6.974,2.823,6.974,6.294
			c0,1.414-0.509,2.751-1.472,3.865l-0.339,0.393l0.339,0.393c0.259,0.3,0.581,0.579,0.964,0.837
			C231.845,275.034,231.731,275.035,231.731,275.035z"/>
	</g>
</g>
<g id="Layer_2">
</g>
<g id="Layer_3">
</g>
<g id="Layer_4">
</g>
<g id="Layer_5">
</g>
</svg>
