<?xml version="1.0" encoding="utf-8"?>
<!-- Generator: Adobe Illustrator 17.0.0, SVG Export Plug-In . SVG Version: 6.00 Build 0)  -->
<!DOCTYPE svg PUBLIC "-//W3C//DTD SVG 1.0//EN" "http://www.w3.org/TR/2001/REC-SVG-20010904/DTD/svg10.dtd">
<svg version="1.0" xmlns="http://www.w3.org/2000/svg" xmlns:xlink="http://www.w3.org/1999/xlink" x="0px" y="0px"
	 width="21.338px" height="21.85px" viewBox="241.53 258.35 21.338 21.85" enable-background="new 241.53 258.35 21.338 21.85"
	 xml:space="preserve">
<g id="Layer_1">
	<path fill="#636363" d="M259.415,264.897v-0.444c0,0-4.523-1.726-7.216,0c-2.693-1.726-7.216,0-7.216,0v0.444h-0.784v10.039h6.693
		v0.47h1.307h1.307v-0.47h6.693v-10.039H259.415z M246.386,273.979c0.781-0.309,2.006-0.711,3.104-0.711
		c0.838,0,1.408,0.242,1.761,0.711H246.386z M251.899,273.842c-1.3-2.278-5.345-0.617-6.316-0.177v-8.783
		c0.662-0.209,2.085-0.597,3.548-0.597c1.125,0,2.048,0.226,2.744,0.672l0.024,0.015V273.842z M253.161,273.979
		c0.353-0.469,0.923-0.711,1.761-0.711c1.098,0,2.323,0.402,3.104,0.711H253.161z M258.815,273.66
		c-0.995-0.45-5.008-2.085-6.302,0.182c-0.004,0.008-0.009,0.014-0.013,0.021v-8.89l0.024-0.015
		c0.696-0.446,1.619-0.672,2.744-0.672c1.469,0,2.888,0.387,3.548,0.596V273.66z"/>
</g>
<g id="Layer_2">
</g>
<g id="Layer_3">
</g>
<g id="Layer_4">
</g>
<g id="Layer_5">
</g>
</svg>
