<?xml version="1.0" encoding="utf-8"?>
<!-- Generator: Adobe Illustrator 17.0.0, SVG Export Plug-In . SVG Version: 6.00 Build 0)  -->
<!DOCTYPE svg PUBLIC "-//W3C//DTD SVG 1.0//EN" "http://www.w3.org/TR/2001/REC-SVG-20010904/DTD/svg10.dtd">
<svg version="1.0" xmlns="http://www.w3.org/2000/svg" xmlns:xlink="http://www.w3.org/1999/xlink" x="0px" y="0px"
	 width="21.338px" height="21.85px" viewBox="109.838 258.35 21.338 21.85" enable-background="new 109.838 258.35 21.338 21.85"
	 xml:space="preserve">
<g id="Layer_1">
	<g>
		<g>
			<path fill="#636363" d="M123.666,268.919c1.621,0,2.935-1.314,2.935-2.935c0-1.621-1.314-2.935-2.935-2.935
				c-1.621,0-2.935,1.314-2.935,2.935C120.732,267.605,122.046,268.919,123.666,268.919z M123.667,263.649
				c1.287,0,2.334,1.048,2.334,2.335s-1.047,2.335-2.334,2.335c-1.288,0-2.335-1.048-2.335-2.335S122.379,263.649,123.667,263.649z"
				/>
			<path fill="#636363" d="M123.856,269.44h-0.379c-2.792,0-5.056,2.264-5.056,5.056v3.05h10.491v-3.05
				C128.912,271.704,126.648,269.44,123.856,269.44z M128.312,276.946h-9.291v-2.45c0-2.457,1.999-4.456,4.456-4.456h0.379
				c2.457,0,4.456,1.999,4.456,4.456V276.946z"/>
			<path fill="#636363" d="M115.095,264.894c0.924,0,1.674-0.749,1.674-1.674c0-0.924-0.749-1.674-1.674-1.674
				s-1.674,0.749-1.674,1.674C113.421,264.145,114.17,264.894,115.095,264.894z M115.095,262.146c0.592,0,1.074,0.482,1.074,1.074
				s-0.482,1.074-1.074,1.074s-1.074-0.482-1.074-1.074S114.502,262.146,115.095,262.146z"/>
			<path fill="#636363" d="M115.203,265.191h-0.216c-1.593,0-2.884,1.291-2.884,2.884v1.739h5.984v-1.739
				C118.087,266.482,116.796,265.191,115.203,265.191z M117.487,269.215h-4.784v-1.14c0-1.26,1.024-2.284,2.284-2.284h0.216
				c1.259,0,2.284,1.024,2.284,2.284V269.215z"/>
		</g>
		<rect x="114.448" y="274.345" fill="#636363" width="1.011" height="1.011"/>
		<rect x="116.263" y="274.345" fill="#636363" width="1.011" height="1.011"/>
		<rect x="117.603" y="263.883" fill="#636363" width="1.011" height="1.011"/>
		<rect x="119.418" y="263.883" fill="#636363" width="1.011" height="1.011"/>
		<rect x="114.448" y="272.602" fill="#636363" width="1.011" height="1.011"/>
		<rect x="114.448" y="270.859" fill="#636363" width="1.011" height="1.011"/>
	</g>
</g>
<g id="Layer_2">
</g>
<g id="Layer_3">
</g>
<g id="Layer_4">
</g>
<g id="Layer_5">
</g>
</svg>
