<?xml version="1.0" encoding="utf-8"?>
<!-- Generator: Adobe Illustrator 17.0.0, SVG Export Plug-In . SVG Version: 6.00 Build 0)  -->
<!DOCTYPE svg PUBLIC "-//W3C//DTD SVG 1.0//EN" "http://www.w3.org/TR/2001/REC-SVG-20010904/DTD/svg10.dtd">
<svg version="1.0" xmlns="http://www.w3.org/2000/svg" xmlns:xlink="http://www.w3.org/1999/xlink" x="0px" y="0px"
	 width="21.338px" height="21.85px" viewBox="267.869 231.5 21.338 21.85" enable-background="new 267.869 231.5 21.338 21.85"
	 xml:space="preserve">
<g id="Layer_1">
	<g>
		<path fill="#636363" d="M286.538,236.337c0-0.583-0.221-0.807-0.804-0.807c-2.401-0.001-4.802,0-7.204,0c-2.38,0-4.76,0-7.14,0
			c-0.646,0-0.852,0.208-0.852,0.855c0,2.974,0,5.948,0,8.922c0,0.584,0.219,0.807,0.804,0.807c4.792,0.001,9.584,0.001,14.375,0
			c0.606,0,0.82-0.217,0.82-0.823C286.538,242.306,286.538,239.322,286.538,236.337z M285.938,245.291
			c0,0.121-0.012,0.186-0.02,0.216c-0.003,0-0.008-0.001-0.014-0.001c-0.028,0-0.089,0.007-0.187,0.007l-7.188,0.001l-7.188-0.001
			c-0.11,0-0.169-0.011-0.197-0.018c0.005-0.016-0.007-0.077-0.007-0.189v-0.55h14.8V245.291z M285.938,244.157
			c-4.944,0-9.866,0-14.805,0c0-2.695,0-5.37,0-8.067c4.938,0,9.859,0,14.805,0C285.938,238.798,285.938,241.474,285.938,244.157z"
			/>
		<path fill="#636363" d="M276.872,243.284c0.263,0,0.521,0,0.791,0c0-1.164,0-2.312,0-3.494c-0.269,0-0.523,0-0.791,0
			C276.872,240.952,276.872,242.107,276.872,243.284z"/>
		<path fill="#636363" d="M282.241,243.288c0.271,0,0.524,0,0.791,0c0-1.165,0-2.312,0-3.485c-0.256,0-0.515,0-0.791,0
			C282.241,240.948,282.241,242.102,282.241,243.288z"/>
		<path fill="#636363" d="M279.548,243.277c0.269,0,0.532,0,0.807,0c0-0.782,0-1.55,0-2.344c-0.268,0-0.531,0-0.807,0
			C279.548,241.713,279.548,242.48,279.548,243.277z"/>
		<path fill="#636363" d="M274.188,243.287c0.265,0,0.518,0,0.79,0c0-0.777,0-1.551,0-2.361c-0.266,0-0.523,0-0.79,0
			C274.188,241.721,274.188,242.495,274.188,243.287z"/>
		<path fill="#636363" d="M280.116,246.75c-0.537,0-1.061,0.002-1.578,0.003c-0.517,0-1.041-0.003-1.578-0.003
			c-0.027,0.617-0.197,2.165-0.813,2.475c0.027,0.032,0.053,0.064,0.08,0.096c0.767,0,1.535,0,2.312,0c0.777,0,1.544,0,2.312,0
			c0.027-0.032,0.053-0.064,0.08-0.096C280.313,248.915,280.143,247.367,280.116,246.75z M277.213,248.721
			c0.167-0.447,0.256-0.95,0.302-1.37h2.047c0.047,0.419,0.135,0.923,0.303,1.37H277.213z"/>
		<polygon fill="#636363" points="277.668,238.458 280.276,240.029 283.611,237.687 283.246,237.167 280.25,239.272 
			277.692,237.731 273.49,239.897 273.781,240.462 		"/>
	</g>
</g>
<g id="Layer_2">
</g>
<g id="Layer_3">
</g>
<g id="Layer_4">
</g>
<g id="Layer_5">
</g>
</svg>
