<?xml version="1.0" encoding="utf-8"?>
<!-- Generator: Adobe Illustrator 17.0.0, SVG Export Plug-In . SVG Version: 6.00 Build 0)  -->
<!DOCTYPE svg PUBLIC "-//W3C//DTD SVG 1.0//EN" "http://www.w3.org/TR/2001/REC-SVG-20010904/DTD/svg10.dtd">
<svg version="1.0" xmlns="http://www.w3.org/2000/svg" xmlns:xlink="http://www.w3.org/1999/xlink" x="0px" y="0px"
	 width="21.338px" height="21.85px" viewBox="322 231.5 21.338 21.85" enable-background="new 322 231.5 21.338 21.85"
	 xml:space="preserve">
<g id="Layer_1">
	<path fill-rule="evenodd" clip-rule="evenodd" fill="#636363" d="M330.658,241.78v4.483l4.023-2.241L330.658,241.78z
		 M331.257,242.801l2.191,1.221l-2.191,1.22V242.801z"/>
	<g>
		<path fill-rule="evenodd" clip-rule="evenodd" fill="#636363" d="M338.716,236.322h-12.094c-1.079,0-1.953,0.874-1.953,1.953
			v8.301c0,1.079,0.874,1.953,1.953,1.953h12.094c1.079,0,1.953-0.874,1.953-1.953v-8.301
			C340.669,237.196,339.795,236.322,338.716,236.322z M325.269,238.275c0-0.746,0.607-1.353,1.354-1.353h12.094
			c0.746,0,1.354,0.607,1.354,1.353v1.588h-14.801V238.275z M340.07,246.576c0,0.746-0.607,1.354-1.354,1.354h-12.094
			c-0.746,0-1.354-0.607-1.354-1.354v-6.112h14.801V246.576z"/>
		<circle fill-rule="evenodd" clip-rule="evenodd" fill="#636363" cx="329.525" cy="238.4" r="0.768"/>
		<circle fill-rule="evenodd" clip-rule="evenodd" fill="#636363" cx="326.965" cy="238.4" r="0.768"/>
		<circle fill-rule="evenodd" clip-rule="evenodd" fill="#636363" cx="332.085" cy="238.4" r="0.768"/>
	</g>
</g>
<g id="Layer_2">
</g>
<g id="Layer_3">
</g>
<g id="Layer_4">
</g>
<g id="Layer_5">
</g>
</svg>
