<?xml version="1.0" encoding="utf-8"?>
<!-- Generator: Adobe Illustrator 17.0.0, SVG Export Plug-In . SVG Version: 6.00 Build 0)  -->
<!DOCTYPE svg PUBLIC "-//W3C//DTD SVG 1.0//EN" "http://www.w3.org/TR/2001/REC-SVG-20010904/DTD/svg10.dtd">
<svg version="1.0" xmlns="http://www.w3.org/2000/svg" xmlns:xlink="http://www.w3.org/1999/xlink" x="0px" y="0px"
	 width="21.338px" height="21.85px" viewBox="162.515 231.5 21.338 21.85" enable-background="new 162.515 231.5 21.338 21.85"
	 xml:space="preserve">
<g id="Layer_1">
	<g>
		<path fill="#636363" d="M172.172,241.762c-0.067,0.386-0.14,0.767-0.188,1.128h-0.01c-0.048-0.362-0.101-0.709-0.173-1.09
			l-0.261-1.37h-0.781l-0.274,1.331c-0.082,0.4-0.159,0.791-0.212,1.143h-0.01c-0.053-0.328-0.121-0.748-0.193-1.133l-0.246-1.34
			h-0.786l0.771,3.25h0.805l0.309-1.398c0.077-0.328,0.13-0.636,0.188-1.003h0.01c0.039,0.372,0.092,0.675,0.154,1.003l0.275,1.398
			h0.795l0.839-3.25h-0.748L172.172,241.762z"/>
	</g>
	<g>
		<path fill="#636363" d="M173.187,234.335c-4.418,0-8,3.582-8,8s3.582,8,8,8c4.418,0,8-3.582,8-8S177.606,234.335,173.187,234.335z
			 M173.188,249.735c-4.081,0-7.4-3.319-7.4-7.4s3.319-7.4,7.4-7.4s7.4,3.319,7.4,7.4S177.268,249.735,173.188,249.735z"/>
		<path fill="#636363" d="M174.112,237.119l-6.087,1.083v8.229l6.087,0.98v-1.032h4.238v-8.229h-4.238V237.119z M173.512,246.708
			l-4.887-0.787v-7.215l4.887-0.87V246.708z M177.75,238.751v7.029h-3.637v-0.596h3.091v-0.6h-3.091v-0.458h3.091v-0.6h-3.091
			v-0.458h3.091v-0.6h-3.091v-0.458h3.091v-0.6h-3.091v-0.458h3.091v-0.6h-3.091v-0.458h3.091v-0.6h-3.091v-0.541H177.75z"/>
	</g>
</g>
<g id="Layer_2">
</g>
<g id="Layer_3">
</g>
<g id="Layer_4">
</g>
<g id="Layer_5">
</g>
</svg>
