<?xml version="1.0" encoding="utf-8"?>
<!-- Generator: Adobe Illustrator 17.0.0, SVG Export Plug-In . SVG Version: 6.00 Build 0)  -->
<!DOCTYPE svg PUBLIC "-//W3C//DTD SVG 1.0//EN" "http://www.w3.org/TR/2001/REC-SVG-20010904/DTD/svg10.dtd">
<svg version="1.0" xmlns="http://www.w3.org/2000/svg" xmlns:xlink="http://www.w3.org/1999/xlink" x="0px" y="0px"
	 width="21.338px" height="21.85px" viewBox="241.53 231.5 21.338 21.85" enable-background="new 241.53 231.5 21.338 21.85"
	 xml:space="preserve">
<g id="Layer_1">
	<g>
		<path fill="#636363" d="M252.716,240.463c1.061,0,1.921-0.86,1.921-1.921s-0.86-1.921-1.921-1.921s-1.921,0.86-1.921,1.921
			S251.655,240.463,252.716,240.463z M252.716,237.222c0.729,0,1.321,0.592,1.321,1.32c0,0.729-0.593,1.321-1.321,1.321
			s-1.321-0.592-1.321-1.321C251.395,237.814,251.987,237.222,252.716,237.222z"/>
		<path fill="#636363" d="M254.329,241.059h-7.467c-0.432,0-0.782,0.35-0.782,0.782v4.24c0,0.432,0.35,0.782,0.782,0.782h7.467
			c0.432,0,0.782-0.35,0.782-0.782v-4.24C255.111,241.409,254.761,241.059,254.329,241.059z M254.512,246.082
			c0,0.101-0.082,0.182-0.183,0.182h-7.467c-0.101,0-0.183-0.082-0.183-0.182v-4.241c0-0.101,0.082-0.182,0.183-0.182h7.467
			c0.101,0,0.183,0.082,0.183,0.182V246.082z"/>
		<path fill="#636363" d="M248,240.463c1.061,0,1.921-0.86,1.921-1.921s-0.86-1.921-1.921-1.921s-1.921,0.86-1.921,1.921
			S246.94,240.463,248,240.463z M248,237.222c0.729,0,1.321,0.592,1.321,1.32c0,0.729-0.593,1.321-1.321,1.321
			c-0.728,0-1.32-0.592-1.32-1.321C246.68,237.814,247.272,237.222,248,237.222z"/>
		<path fill="#636363" d="M257.322,242.204c0,0-0.753,0.282-1.146,0.439c-0.393,0.157-0.359,0.474-0.359,0.474v0.601v0.487v0.601
			c0,0-0.034,0.317,0.359,0.474c0.393,0.157,1.146,0.439,1.146,0.439s0.795,0.274,0.795-0.641c0-0.265,0-0.504,0-0.71
			c0,0,0-0.307,0-0.812c0-0.206,0-0.445,0-0.71C258.117,241.93,257.322,242.204,257.322,242.204z M257.518,245.077
			c0,0.029-0.002,0.053-0.004,0.072c-0.003-0.001-0.005-0.001-0.007-0.002c-0.008-0.004-0.709-0.267-1.093-0.419l0.002-1.533
			c0.382-0.153,0.984-0.38,1.098-0.423c0.002,0.02,0.004,0.044,0.004,0.073V245.077z"/>
	</g>
	<path fill="#636363" d="M247.338,242.426v3.029h5.082v-3.029H247.338z M251.819,244.855h-3.882v-1.829h3.882V244.855z"/>
	<circle fill="#636363" cx="253.622" cy="242.667" r="0.473"/>
	<path fill="#636363" d="M257.83,234.335h-11.462c-1.253,0-2.269,1.016-2.269,2.269v11.462c0,1.253,1.016,2.269,2.269,2.269h11.462
		c1.253,0,2.269-1.016,2.269-2.269v-11.462C260.098,235.351,259.083,234.335,257.83,234.335z M259.499,248.066
		c0,0.92-0.749,1.669-1.67,1.669h-11.462c-0.92,0-1.669-0.749-1.669-1.669v-11.462c0-0.92,0.749-1.669,1.669-1.669h11.462
		c0.921,0,1.67,0.749,1.67,1.669V248.066z"/>
</g>
<g id="Layer_2">
</g>
<g id="Layer_3">
</g>
<g id="Layer_4">
</g>
<g id="Layer_5">
</g>
</svg>
