<?xml version="1.0" encoding="utf-8"?>
<!-- Generator: Adobe Illustrator 17.0.0, SVG Export Plug-In . SVG Version: 6.00 Build 0)  -->
<!DOCTYPE svg PUBLIC "-//W3C//DTD SVG 1.0//EN" "http://www.w3.org/TR/2001/REC-SVG-20010904/DTD/svg10.dtd">
<svg version="1.0" xmlns="http://www.w3.org/2000/svg" xmlns:xlink="http://www.w3.org/1999/xlink" x="0px" y="0px"
	 width="21.338px" height="21.85px" viewBox="136.177 231.5 21.338 21.85" enable-background="new 136.177 231.5 21.338 21.85"
	 xml:space="preserve">
<g id="Layer_1">
	<path fill="#636363" d="M145.255,243.681l-0.326-0.585c-0.093-0.159-0.173-0.326-0.252-0.492h-0.02
		c-0.08,0.173-0.166,0.332-0.246,0.492l-0.306,0.585h-1.11l1.103-1.655l-1.077-1.595h1.13l0.319,0.538
		c0.093,0.166,0.179,0.333,0.266,0.485h0.013c0.087-0.173,0.166-0.339,0.253-0.499l0.286-0.525h1.097l-1.07,1.549l1.083,1.701
		H145.255z"/>
	<path fill="#636363" d="M146.848,234.335c-4.418,0-8,3.582-8,8s3.582,8,8,8c4.418,0,8-3.582,8-8S151.266,234.335,146.848,234.335z
		 M146.848,249.735c-4.081,0-7.4-3.319-7.4-7.4s3.319-7.4,7.4-7.4s7.4,3.319,7.4,7.4S150.929,249.735,146.848,249.735z"/>
	<path fill="#636363" d="M147.773,238.151v-1.032l-6.087,1.083v8.229l6.087,0.98v-1.032h4.238v-8.229H147.773z M147.173,246.708
		l-4.887-0.787v-7.215l4.887-0.87V246.708z M151.41,245.78h-3.637v-0.596h3.091v-0.6h-3.091v-0.458h3.091v-0.6h-3.091v-0.458h3.091
		v-0.6h-3.091v-0.458h3.091v-0.6h-3.091v-0.458h3.091v-0.6h-3.091v-0.458h3.091v-0.6h-3.091v-0.541h3.637V245.78z"/>
</g>
<g id="Layer_2">
</g>
<g id="Layer_3">
</g>
<g id="Layer_4">
</g>
<g id="Layer_5">
</g>
</svg>
