<?xml version="1.0" encoding="utf-8"?>
<!-- Generator: Adobe Illustrator 17.0.0, SVG Export Plug-In . SVG Version: 6.00 Build 0)  -->
<!DOCTYPE svg PUBLIC "-//W3C//DTD SVG 1.0//EN" "http://www.w3.org/TR/2001/REC-SVG-20010904/DTD/svg10.dtd">
<svg version="1.0" xmlns="http://www.w3.org/2000/svg" xmlns:xlink="http://www.w3.org/1999/xlink" x="0px" y="0px"
	 width="21.338px" height="21.85px" viewBox="294.207 258.35 21.338 21.85" enable-background="new 294.207 258.35 21.338 21.85"
	 xml:space="preserve">
<g id="Layer_1">
	<g>
		<path fill="#636363" d="M309.426,271.299c-0.684-0.684-1.222-0.931-1.222-0.931l-0.728-0.495
			c-0.888-0.567-0.946-0.771-1.251-1.397c-0.305-0.626-0.8-1.179-0.8-1.179c-0.553-0.553-0.815,0-0.815,0l-0.713,0.713l-2.896-2.896
			l-0.422-0.422c0,0,0,0-0.277-0.829s-0.713-1.004-0.713-1.004l-1.863-1.251l-0.41,0.41l-0.41,0.41l1.251,1.863
			c0,0,0.175,0.437,1.004,0.713c0.829,0.276,0.829,0.276,0.829,0.276l0.422,0.422l2.896,2.896l-0.713,0.713c0,0-0.553,0.262,0,0.815
			c0,0,0.553,0.495,1.179,0.8c0.626,0.306,0.829,0.364,1.397,1.251l0.495,0.728c0,0,0.247,0.538,0.931,1.222
			c0.684,0.684,3.42,3.42,3.42,3.42l1.414-1.414l1.414-1.414C312.846,274.718,310.11,271.983,309.426,271.299z M299.352,264.434
			c-0.516-0.172-0.65-0.399-0.652-0.401l-1.021-1.528l0.123-0.123l1.505,1.011l0.057,0.022c-0.009,0,0.206,0.146,0.37,0.639
			l0.19,0.571L299.352,264.434z M310.018,276.697l-2.996-2.995c-0.586-0.587-0.809-1.048-0.811-1.052l-0.543-0.812
			c-0.59-0.922-0.893-1.096-1.521-1.399l-0.108-0.053c-0.447-0.219-0.865-0.56-0.998-0.672l1.976-1.976
			c0.078,0.093,0.44,0.53,0.67,1l0.053,0.107c0.304,0.629,0.479,0.932,1.415,1.531l0.755,0.514l0.046,0.021
			c0,0.001,0.461,0.224,1.047,0.811l2.996,2.995L310.018,276.697z"/>
		<g>
			<path fill="#636363" d="M303.629,271.513l-0.114-0.055c-0.691-0.338-1.288-0.868-1.313-0.891
				c-0.001-0.001-0.002-0.002-0.003-0.003c-0.149-0.149-0.238-0.287-0.306-0.42l-4.453,4.453c-0.633,0.633-0.633,1.659,0,2.292
				c0.633,0.633,1.659,0.633,2.292,0l4.719-4.719c-0.091-0.126-0.173-0.229-0.245-0.3
				C304.057,271.721,303.923,271.656,303.629,271.513z M299.153,276.159c-0.265,0.265-0.695,0.265-0.96,0s-0.265-0.695,0-0.961
				c0.265-0.265,0.695-0.265,0.96,0C299.418,275.463,299.418,275.894,299.153,276.159z M299.941,275.831
				c0.045-0.377-0.077-0.769-0.365-1.057c-0.241-0.242-0.563-0.375-0.903-0.375c-0.068,0-0.136,0.006-0.202,0.016l3.369-3.369
				c0.217,0.188,0.769,0.637,1.411,0.951c0,0,0.296,0.144,0.352,0.173L299.941,275.831z"/>
			<path fill="#636363" d="M312.634,264.031l-1.542,1.541c-0.639,0.639-1.675,0.639-2.314,0c-0.639-0.639-0.639-1.675,0-2.314
				l1.542-1.542c-1.234-0.392-2.636-0.114-3.615,0.865c-0.979,0.979-1.257,2.381-0.865,3.615l-0.393,0.393
				c0.127,0.065,0.258,0.149,0.397,0.288c0.045,0.049,0.576,0.645,0.914,1.337l0.054,0.111c0.142,0.295,0.207,0.43,0.357,0.58
				c0.072,0.072,0.176,0.154,0.3,0.245l0.65-0.65c1.243,0.408,2.661,0.133,3.649-0.855
				C312.748,266.667,313.026,265.266,312.634,264.031z M311.345,267.223c-0.556,0.555-1.297,0.86-2.088,0.86
				c-0.323,0-0.643-0.051-0.949-0.152l-0.351-0.115l-0.488,0.488c-0.028-0.055-0.171-0.349-0.171-0.349
				c-0.318-0.652-0.786-1.222-0.952-1.415l0.177-0.177l-0.11-0.348c-0.341-1.073-0.065-2.227,0.717-3.01
				c0.514-0.513,1.186-0.813,1.909-0.854l-0.684,0.683c-0.872,0.872-0.872,2.291,0,3.162c0.422,0.423,0.983,0.655,1.58,0.655
				c0.598,0,1.159-0.232,1.581-0.655l0.685-0.684C312.158,266.024,311.862,266.704,311.345,267.223z"/>
		</g>
	</g>
</g>
<g id="Layer_2">
</g>
<g id="Layer_3">
</g>
<g id="Layer_4">
</g>
<g id="Layer_5">
</g>
</svg>
