<?xml version="1.0" encoding="utf-8"?>
<!-- Generator: Adobe Illustrator 17.0.0, SVG Export Plug-In . SVG Version: 6.00 Build 0)  -->
<!DOCTYPE svg PUBLIC "-//W3C//DTD SVG 1.0//EN" "http://www.w3.org/TR/2001/REC-SVG-20010904/DTD/svg10.dtd">
<svg version="1.0" xmlns="http://www.w3.org/2000/svg" xmlns:xlink="http://www.w3.org/1999/xlink" x="0px" y="0px"
	 width="21.338px" height="21.85px" viewBox="294.207 231.5 21.338 21.85" enable-background="new 294.207 231.5 21.338 21.85"
	 xml:space="preserve">
<g id="Layer_1">
	<g>
		<path fill="#636363" d="M310.981,237.322h-0.569v-0.648c0-0.737-0.6-1.338-1.338-1.338h-8.395c-0.738,0-1.338,0.6-1.338,1.338
			v0.648h-0.569c-1.045,0-1.895,0.85-1.895,1.895v8.221c0,1.045,0.85,1.895,1.895,1.895h12.21c1.045,0,1.895-0.85,1.895-1.895
			v-8.221C312.876,238.173,312.026,237.322,310.981,237.322z M312.276,247.439c0,0.714-0.581,1.295-1.295,1.295h-12.21
			c-0.714,0-1.296-0.581-1.296-1.295v-8.222c0-0.714,0.582-1.295,1.296-1.295h1.169v-1.248c0-0.407,0.331-0.738,0.738-0.738h8.396
			c0.407,0,0.738,0.331,0.738,0.738v1.248h1.169c0.714,0,1.295,0.581,1.295,1.295V247.439z"/>
		<g>
			<path fill="#636363" d="M302.487,241.132c0,0,0.453-3.065,4.424-3.065c0,0-3.901-1.115-6.026,2.473l-1.01-0.453l0.279,4.11
				l3.483-2.717L302.487,241.132z M300.676,243.029l-0.135-1.986l0.587,0.263l0.273-0.461c0.345-0.583,0.743-1.028,1.164-1.364
				c-0.549,0.804-0.669,1.547-0.672,1.563l-0.075,0.512l0.537,0.163L300.676,243.029z"/>
			<path fill="#636363" d="M309.339,240.134l-3.304,2.933l1.169,0.275c0,0-0.257,3.088-4.221,3.34c0,0,3.964,0.865,5.857-2.851
				l1.037,0.388L309.339,240.134z M308.55,243.081l-0.243,0.477c-0.311,0.608-0.68,1.081-1.082,1.446
				c0.502-0.842,0.576-1.596,0.577-1.613l0.043-0.516l-0.546-0.128l1.593-1.414l0.261,1.974L308.55,243.081z"/>
		</g>
	</g>
</g>
<g id="Layer_2">
</g>
<g id="Layer_3">
</g>
<g id="Layer_4">
</g>
<g id="Layer_5">
</g>
</svg>
