<?xml version="1.0" encoding="utf-8"?>
<!-- Generator: Adobe Illustrator 17.0.0, SVG Export Plug-In . SVG Version: 6.00 Build 0)  -->
<!DOCTYPE svg PUBLIC "-//W3C//DTD SVG 1.0//EN" "http://www.w3.org/TR/2001/REC-SVG-20010904/DTD/svg10.dtd">
<svg version="1.0" xmlns="http://www.w3.org/2000/svg" xmlns:xlink="http://www.w3.org/1999/xlink" x="0px" y="0px"
	 width="21.338px" height="21.85px" viewBox="136.177 258.35 21.338 21.85" enable-background="new 136.177 258.35 21.338 21.85"
	 xml:space="preserve">
<g id="Layer_1">
	<path fill="#636363" d="M152.477,268.891c-0.381,0-0.74,0.092-1.058,0.252v-4.169h-4.17c0.16-0.319,0.252-0.678,0.252-1.059
		c0-1.308-1.06-2.369-2.369-2.369c-1.308,0-2.369,1.06-2.369,2.369c0,0.381,0.092,0.74,0.252,1.059h-4.169v4.169
		c0.319-0.16,0.678-0.252,1.059-0.252c1.308,0,2.369,1.061,2.369,2.369s-1.061,2.369-2.369,2.369c-0.381,0-0.74-0.092-1.059-0.252
		v4.17h4.169c-0.16-0.319-0.252-0.678-0.252-1.059c0-1.308,1.061-2.369,2.369-2.369c1.308,0,2.369,1.06,2.369,2.369
		c0,0.381-0.092,0.74-0.252,1.059h4.17v-4.17c0.319,0.16,0.678,0.252,1.058,0.252c1.308,0,2.369-1.06,2.369-2.369
		S153.785,268.891,152.477,268.891z M152.477,273.028c-0.275,0-0.541-0.063-0.791-0.188l-0.868-0.433v4.539h-2.753
		c0.023-0.151,0.036-0.304,0.036-0.459c0-1.637-1.332-2.968-2.969-2.968s-2.969,1.331-2.969,2.968c0,0.155,0.012,0.308,0.036,0.459
		h-2.753v-2.754c0.15,0.023,0.304,0.035,0.458,0.035c1.637,0,2.969-1.331,2.969-2.968s-1.332-2.969-2.969-2.969
		c-0.155,0-0.308,0.012-0.458,0.035v-2.753h4.542l-0.436-0.868c-0.125-0.25-0.188-0.516-0.188-0.79c0-0.976,0.793-1.77,1.769-1.77
		s1.769,0.794,1.769,1.77c0,0.274-0.063,0.54-0.188,0.79l-0.434,0.868h4.54v4.539l0.868-0.433c0.251-0.126,0.517-0.189,0.791-0.189
		c0.975,0,1.769,0.794,1.769,1.77C154.246,272.234,153.452,273.028,152.477,273.028z"/>
</g>
<g id="Layer_2">
</g>
<g id="Layer_3">
</g>
<g id="Layer_4">
</g>
<g id="Layer_5">
</g>
</svg>
