<?xml version="1.0" encoding="utf-8"?>
<!-- Generator: Adobe Illustrator 17.0.0, SVG Export Plug-In . SVG Version: 6.00 Build 0)  -->
<!DOCTYPE svg PUBLIC "-//W3C//DTD SVG 1.0//EN" "http://www.w3.org/TR/2001/REC-SVG-20010904/DTD/svg10.dtd">
<svg version="1.0" xmlns="http://www.w3.org/2000/svg" xmlns:xlink="http://www.w3.org/1999/xlink" x="0px" y="0px"
	 width="21.338px" height="21.85px" viewBox="188.853 231.5 21.338 21.85" enable-background="new 188.853 231.5 21.338 21.85"
	 xml:space="preserve">
<g id="Layer_1">
	<path fill="#636363" d="M200.817,239.929c-0.558-0.005-1.029,0.474-1.02,1.036c0.009,0.553,0.471,1.003,1.025,0.997
		c0.559-0.007,1.002-0.456,1-1.016C201.82,240.388,201.371,239.934,200.817,239.929z M200.813,241.362h-0.004
		c-0.221,0-0.41-0.186-0.413-0.407c-0.002-0.108,0.043-0.217,0.125-0.299c0.08-0.082,0.182-0.126,0.286-0.126
		c0.229,0.001,0.413,0.189,0.414,0.417C201.222,241.177,201.043,241.359,200.813,241.362z"/>
	<path fill="#636363" d="M199.523,234.335c-4.418,0-8,3.582-8,8s3.582,8,8,8c4.418,0,8-3.582,8-8S203.941,234.335,199.523,234.335z
		 M199.522,249.735c-4.081,0-7.4-3.319-7.4-7.4s3.319-7.4,7.4-7.4c4.08,0,7.4,3.319,7.4,7.4S203.603,249.735,199.522,249.735z"/>
	<path fill="#636363" d="M195.406,238.436v5.901v0.942v1.487h8.24v-1.461v-0.968v-5.901H195.406z M196.007,239.036
		c2.342,0,4.684,0,7.04,0c0,1.518,0,3.023,0,4.601c-0.365-0.442-0.689-0.833-1.012-1.226c-0.225-0.273-0.224-0.273-0.52-0.058
		c-0.386,0.281-0.772,0.562-1.229,0.895c-0.208-0.232-0.409-0.48-0.634-0.704c-0.51-0.51-1.03-1.009-1.548-1.511
		c-0.201-0.194-0.245-0.19-0.405,0.038c-0.505,0.72-1.009,1.442-1.514,2.163c-0.047,0.067-0.098,0.132-0.179,0.24
		C196.007,241.969,196.007,240.512,196.007,239.036z M203.047,246.166c-2.357,0-4.698,0-7.04,0c0-0.565,0-1.127,0-1.691l0.67-0.897
		l1.291-1.842l0.031,0.03c0.412,0.398,0.824,0.797,1.23,1.203c0.146,0.146,0.281,0.302,0.416,0.457l0.194,0.222l0.374,0.396
		l1.495-1.088l1.341,1.622C203.047,245.109,203.047,245.637,203.047,246.166z"/>
</g>
<g id="Layer_2">
</g>
<g id="Layer_3">
</g>
<g id="Layer_4">
</g>
<g id="Layer_5">
</g>
</svg>
