<?xml version="1.0" encoding="utf-8"?>
<!-- Generator: Adobe Illustrator 17.0.0, SVG Export Plug-In . SVG Version: 6.00 Build 0)  -->
<!DOCTYPE svg PUBLIC "-//W3C//DTD SVG 1.0//EN" "http://www.w3.org/TR/2001/REC-SVG-20010904/DTD/svg10.dtd">
<svg version="1.0" xmlns="http://www.w3.org/2000/svg" xmlns:xlink="http://www.w3.org/1999/xlink" x="0px" y="0px"
	 width="21.338px" height="21.85px" viewBox="83.5 231.5 21.338 21.85" enable-background="new 83.5 231.5 21.338 21.85"
	 xml:space="preserve">
<g id="Layer_1">
	<path fill="#636363" d="M97.982,242.688c-0.337,0-0.744,0.025-1.221,0.074c-0.646-0.365-1.146-0.782-1.5-1.253
		c-0.354-0.47-0.658-1.081-0.911-1.832c0.084-0.463,0.133-1.228,0.147-2.295l-0.274-0.032c-0.028,0.126-0.061,0.314-0.1,0.563
		c-0.039,0.249-0.068,0.437-0.09,0.563c-0.063-0.393-0.095-0.723-0.095-0.99c0-0.344,0.042-0.586,0.126-0.726
		c0.105,0.105,0.165,0.249,0.179,0.432l0.284,0.01c0.021-0.091,0.032-0.19,0.032-0.295c0-0.161-0.033-0.281-0.1-0.358
		c-0.067-0.077-0.139-0.123-0.216-0.137s-0.197-0.021-0.358-0.021c-0.33,0-0.495,0.404-0.495,1.211c0,0.667,0.116,1.375,0.347,2.126
		c-0.267,0.912-0.628,1.828-1.084,2.747c-1.249,2.47-2.179,3.8-2.79,3.99c0.084-0.274,0.289-0.588,0.616-0.942
		c0.326-0.354,0.644-0.644,0.953-0.868l-0.158-0.232c-0.435,0.232-0.867,0.542-1.295,0.932c-0.428,0.389-0.642,0.763-0.642,1.121
		c0,0.098,0.028,0.175,0.084,0.232c0.028,0.014,0.07,0.037,0.126,0.068c0.056,0.031,0.104,0.056,0.142,0.074
		c0.039,0.018,0.082,0.033,0.132,0.047c0.049,0.014,0.098,0.021,0.147,0.021c0.618,0,1.442-0.902,2.474-2.705
		c1.186-0.421,2.551-0.709,4.095-0.863c0.954,0.505,1.797,0.758,2.526,0.758c0.435,0,0.67-0.147,0.705-0.442l0.032,0.011
		c0.035-0.091,0.053-0.175,0.053-0.253C99.856,242.933,99.231,242.688,97.982,242.688z M92.687,243.793
		c0.688-1.214,1.158-2.246,1.411-3.095c0.428,0.954,1.004,1.688,1.726,2.2C94.673,243.116,93.628,243.414,92.687,243.793z
		 M99.298,243.635c-0.365,0-0.863-0.123-1.495-0.368h0.2c1.018,0,1.526,0.112,1.526,0.337
		C99.48,243.625,99.403,243.635,99.298,243.635z"/>
	<path fill="#636363" d="M94.169,234.335c-4.418,0-8,3.582-8,8s3.582,8,8,8s8-3.582,8-8S98.587,234.335,94.169,234.335z
		 M94.169,249.735c-4.081,0-7.4-3.319-7.4-7.4s3.319-7.4,7.4-7.4s7.4,3.319,7.4,7.4S98.25,249.735,94.169,249.735z"/>
</g>
<g id="Layer_2">
</g>
<g id="Layer_3">
</g>
<g id="Layer_4">
</g>
<g id="Layer_5">
</g>
</svg>
